<svg viewBox="0 0 100 100" xmlns="http://www.w3.org/2000/svg">
    <defs>
        <linearGradient id="mangoGradient" x1="0%" y1="0%" x2="100%" y2="100%">
            <stop offset="0%" style="stop-color:#FFD700;stop-opacity:1" />
            <stop offset="100%" style="stop-color:#FFA500;stop-opacity:1" />
        </linearGradient>
    </defs>
    <path fill="url(#mangoGradient)" d="M50 10 C 20 10, 10 40, 10 60 C 10 90, 40 95, 50 90 C 60 95, 90 90, 90 60 C 90 40, 80 10, 50 10 z M 50 20 C 70 20, 80 45, 80 60 C 80 80, 60 85, 50 80 C 40 85, 20 80, 20 60 C 20 45, 30 20, 50 20 z" />
    <path fill="#32CD32" d="M50 10 A 15 15 0 0 1 60 25 L 50 20 Z" />
</svg>