<svg xmlns="http://www.w3.org/2000/svg" viewBox="0 0 1024 1024" width="1024" height="1024" style="margin:auto">
<g fill-rule="evenodd">
<g transform="scale(.5)">
<path fill="#D89221" d="m765 687q73-31 160-30l48 6 72-1h211v463l-11 36q-18 86-76 180-109 176-293 279-109 55-203 49-74-6-115-63v-205l6-38v-474z"/>
<path fill="#ffbc31" d="m535 1153-4-72q-7-164 85-285 119-141 305-139 76 70 119 135l19 43 23 92q86 211 74 216 2 170-195 340-175 142-404 121-31-43-24-103l26-104q8-62-1-116z"/>
<path fill="#498932" d="m1031 646-1-178h11q3 6 21 18l21 19 25 26q70 16 110 32 214 84 306 390 40 126 33 292-10 148-68 256l-3-4q-25-124-135-256-101-113-160-192-121-173-108-350z"/>
<path fill="#934d01" d="m927 539-74 36q-18 2-26-12-9-14 4-28 152-77 304-216l12-4q29 7 39 34 0 14-4 18 1 3-27 22-78 57-122 84l-1 20 8 8v171l-31-1-32-8q13-57 12-66-3-57-12-86z"/>
<path fill="#fdfefb" d="m1041 680-24-8q0-21 20-79-17-43-7-103 29 14 65 51 3 14 0 64-9 57-12 90l-2 2z"/>
</g>
<g transform="scale(.5)">
<path fill="#6F4F31" d="m1040 469 69 63q271 45 386 339 131 337-5 631-37-118-70-167-37-62-162-199-189-217-176-433 8 18-91-37l-30 11 66 76 40 68q26 137 88 250 72 233-290 510l-238 66q125 36 306-77 244-179 310-442 23 1-37 145-86 177-248 295-158 114-299 100-121-25-127-149l30-142q7-54-17-170-49-254 71-411 144-166 359-132 23-50 4-154-192 113-145 22 141-66 304-216 61 5 43 53zm-463 866q0 47-33 178-3 8 17 87 250 41 468-179 104-118 125-230 6-54-4-100-72-153-92-260-20-61-115-154 8-10-72-7-156 21-255 147-86 127-70 306zm519-736v-58l-65-52q-13 52 6 104-21 57-20 81 36 7 64 26zm13-4q-61 259 117 482 235 260 257 362l10 16q104-224 6-542-122-332-390-364z"/>
</g>
</g>
</svg>