<?xml version="1.0" encoding="UTF-8"?>
<!-- Generator: visioncortex VTracer -->
<svg id="svg" version="1.1" xmlns="http://www.w3.org/2000/svg" viewBox="0 0 1024 1024"
    style="display: block;">
    <path
        d="M0 0 C337.92 0 675.84 0 1024 0 C1024 337.92 1024 675.84 1024 1024 C686.08 1024 348.16 1024 0 1024 C0 686.08 0 348.16 0 0 Z "
        transform="translate(0,0)" style="fill: #FDFDFD;" />
    <path
        d="M0 0 C6.7172485 2.15911559 11.46530708 5.97472136 15.9375 11.3125 C17.46405183 15.17377817 17.71483811 18.9072014 17 23 C14.88972107 27.68868312 11.4833661 30.19236598 7.375 33.0625 C6.7154834 33.53437744 6.0559668 34.00625488 5.37646484 34.49243164 C3.25762647 36.00457281 1.12943665 37.50283035 -1 39 C-2.39101061 39.98643563 -3.78163778 40.97341219 -5.171875 41.9609375 C-8.00039057 43.9665582 -10.83406355 45.96458687 -13.671875 47.95703125 C-16.56357995 49.98736339 -19.44870543 52.02650145 -22.328125 54.07421875 C-29.86970099 59.43214512 -37.45163807 64.70582301 -45.18017578 69.79150391 C-49.72176069 72.71774786 -49.72176069 72.71774786 -54 76 C-54 76.66 -54 77.32 -54 78 C-51.86819638 79.80544604 -49.72634919 81.50596482 -47.5 83.1875 C-46.20847479 84.18339248 -44.91810379 85.18078365 -43.62890625 86.1796875 C-43.00258301 86.66405273 -42.37625977 87.14841797 -41.73095703 87.64746094 C-35.17633544 92.76912576 -30.02241369 98.17753562 -24.875 104.6875 C-20.17855026 108.46507914 -14.67515622 109.31207445 -8.83618164 110.4050293 C-2.03571397 111.69429172 4.55100161 113.48021087 11.1875 115.4375 C12.22841797 115.73720703 13.26933594 116.03691406 14.34179688 116.34570312 C19.74227822 117.92641544 24.86204182 119.68288161 30 122 C31.60755276 122.63613476 33.21709679 123.26725028 34.828125 123.89453125 C58.46938032 133.31618799 80.13954357 147.42788993 98.67578125 164.828125 C100.65065878 166.67355677 102.66242492 168.41069993 104.75 170.125 C107.76512555 172.69317753 110.33669989 175.49539392 112.89453125 178.515625 C114.59938135 180.52728486 116.32739989 182.50948013 118.07421875 184.484375 C119.17466723 185.73941846 120.27492656 186.9946278 121.375 188.25 C122.17973755 189.15395508 122.17973755 189.15395508 123.00073242 190.07617188 C123.75447144 190.94338867 123.75447144 190.94338867 124.5234375 191.828125 C124.97638184 192.3427832 125.42932617 192.85744141 125.89599609 193.38769531 C127.15593013 195.22772281 127.58299923 196.82357446 128 199 C128.66 199 129.32 199 130 199 C131.7648772 201.27656903 133.39495725 203.55088799 135 205.9375 C135.73259033 207.01753296 135.73259033 207.01753296 136.47998047 208.11938477 C146.56909417 223.16835498 156.06082133 239.23806976 163 256 C163.39964966 256.96389648 163.39964966 256.96389648 163.80737305 257.94726562 C164.66716985 260.02575265 165.52171203 262.10633302 166.375 264.1875 C168.43943791 269.21650988 170.51659869 274.23921081 172.625 279.25 C177.30276168 290.49929201 181.39397584 301.86812808 185 313.5 C185.21821411 314.20297211 185.43642822 314.90594421 185.66125488 315.63021851 C192.81513125 338.76328656 197.27125836 362.102204 201 386 C201.17074539 387.03581711 201.34149078 388.07163422 201.51741028 389.13883972 C202.82319591 397.49406847 203.30715358 405.60877799 203.30078125 414.05859375 C203.30720894 416.01612328 203.30720894 416.01612328 203.31376648 418.01319885 C203.3211638 420.76543259 203.32099114 423.51753806 203.31567383 426.26977539 C203.31109695 429.01799122 203.31776368 431.76575874 203.33618164 434.51391602 C203.52127254 462.4216098 201.58363786 489.72146123 195.63525391 517.07617188 C195.04076761 519.81236246 194.4777212 522.55341609 193.91796875 525.296875 C189.20668486 547.46450463 181.68019207 572.9797119 169 592 C168.34 592 167.68 592 167 592 C166.74476563 590.98353394 166.74476563 590.98353394 166.484375 589.9465332 C156.89419835 552.13101285 141.46218906 518.30961066 118 487 C117.26523437 485.99195313 116.53046875 484.98390625 115.7734375 483.9453125 C110.9765799 477.41955216 105.87839981 471.22398105 100.61328125 465.078125 C98.38804163 462.47413823 96.24260373 459.81770032 94.125 457.125 C85.39406669 446.13115132 75.93591448 435.75810746 66.37695312 425.48583984 C64.23367647 423.17307713 62.11449375 420.83907233 60 418.5 C59.319375 417.7471875 58.63875 416.994375 57.9375 416.21875 C56.53561593 414.61336663 55.1875104 412.96049125 53.875 411.28125 C52.20355756 408.93218856 52.20355756 408.93218856 50 408 C49.85304688 408.78697266 49.85304688 408.78697266 49.703125 409.58984375 C49.1609597 412.39882088 48.58240319 415.19907828 48 418 C47.76667969 419.155 47.53335937 420.31 47.29296875 421.5 C45.29670838 430.88529605 42.51505177 439.95597583 39.5 449.0625 C38.93043579 450.79294556 38.93043579 450.79294556 38.34936523 452.55834961 C36.29206783 458.65738568 34.01275193 464.31484886 31 470 C30.19714481 471.76578887 29.40407776 473.53609221 28.625 475.3125 C26.46430699 480.12070882 24.0306521 484.7135536 21.4296875 489.296875 C19.92759044 492.02134455 19.92759044 492.02134455 18.75390625 495.1171875 C16.4744227 500.53977337 13.19359822 505.41494531 10.0625 510.375 C9.39444336 511.43702637 8.72638672 512.49905273 8.03808594 513.59326172 C-0.27601507 526.71401425 -9.19623297 539.22948404 -18.91796875 551.33984375 C-20.97791047 553.78990533 -20.97791047 553.78990533 -22 556 C-22.66 556 -23.32 556 -24 556 C-24.32871094 556.78890625 -24.32871094 556.78890625 -24.6640625 557.59375 C-26.50120789 560.90276041 -28.90815116 563.65255386 -31.375 566.5 C-31.90230713 567.11222412 -32.42961426 567.72444824 -32.97290039 568.35522461 C-38.35998081 574.535485 -44.12999031 580.28334325 -50 586 C-52.37654758 588.36220943 -54.74081423 590.7320117 -57.0703125 593.140625 C-71.32541133 607.77513711 -71.32541133 607.77513711 -78 610 C-78 610.66 -78 611.32 -78 612 C-80.33739156 613.91848242 -82.68418827 615.72110802 -85.125 617.5 C-85.85348145 618.03681396 -86.58196289 618.57362793 -87.33251953 619.12670898 C-88.83454256 620.23077266 -90.33895958 621.33158651 -91.84570312 622.42919922 C-93.75309342 623.81996862 -95.65115063 625.22231351 -97.546875 626.62890625 C-116.71190994 640.72397433 -137.85673824 653.23384777 -160 662 C-161.2372583 662.49113281 -161.2372583 662.49113281 -162.49951172 662.9921875 C-189.95068705 673.74427679 -226.93362287 684.44050903 -256 674 C-257.1446875 673.63648438 -258.289375 673.27296875 -259.46875 672.8984375 C-267.24907728 670.3216197 -275.71691357 667.37826613 -281.58203125 661.3828125 C-283.06416471 659.73641613 -283.06416471 659.73641613 -286 659 C-302.05497961 641.74688758 -311.14558949 621.64575047 -310.48046875 598.0546875 C-309.74798309 585.46085842 -305.83505931 573.29195099 -302.3359375 561.2421875 C-302.06990723 560.3251001 -301.80387695 559.4080127 -301.52978516 558.46313477 C-301.03464386 556.78005742 -300.52783518 555.10033427 -300.00537109 553.42553711 C-296.15222381 540.68040934 -295.65083463 527.9385027 -295.68432617 514.73291016 C-295.68748745 512.13531498 -295.6639256 509.5388619 -295.63867188 506.94140625 C-295.60399319 497.45126871 -296.28625541 488.60068948 -298.29370117 479.31738281 C-298.91365412 476.40555402 -299.33647212 473.5845302 -299.625 470.625 C-299.76671482 467.17256712 -299.76671482 467.17256712 -301 465 C-301.53279845 461.33757035 -301.96242018 457.66684317 -302.40234375 453.9921875 C-302.8472025 450.67772765 -303.61629332 447.50963036 -304.46264648 444.27294922 C-305.60466524 439.44232922 -306.30142386 434.52714062 -307.0625 429.625 C-307.23587891 428.57183594 -307.40925781 427.51867187 -307.58789062 426.43359375 C-313.99804531 385.32018784 -313.68701636 339.48867789 -300 300 C-299.35098758 298.00102937 -298.70479627 296.00113873 -298.0625 294 C-292.46320014 277.3528508 -284.69015988 262.00650497 -274.1640625 247.953125 C-272.27004549 245.36850973 -270.63489766 242.75025058 -269 240 C-266.9375 237.6875 -266.9375 237.6875 -265 236 C-264.34 236 -263.68 236 -263 236 C-262.34 234.35 -261.68 232.7 -261 231 C-260.34 231 -259.68 231 -259 231 C-258.67 230.01 -258.34 229.02 -258 228 C-257.34 228 -256.68 228 -256 228 C-255.67 227.01 -255.34 226.02 -255 225 C-253.5390625 223.52734375 -253.5390625 223.52734375 -251.625 221.9375 C-247.16246383 218.16645592 -242.88700038 214.21740701 -238.61328125 210.234375 C-236.16734797 208.14308376 -233.78283951 206.59590956 -231 205 C-229.51263859 203.94900223 -228.03373021 202.8859626 -226.5625 201.8125 C-220.31415004 197.39637296 -213.70344575 193.6725427 -207 190 C-206.28585937 189.59394531 -205.57171875 189.18789063 -204.8359375 188.76953125 C-203 188 -203 188 -199 188 C-199 187.34 -199 186.68 -199 186 C-180.83553274 179.45809409 -163.3342753 173.17731855 -143.9375 171.875 C-142.71248779 171.7915332 -141.48747559 171.70806641 -140.2253418 171.62207031 C-122.66952979 170.51087121 -105.41659005 170.34964934 -88 173 C-87.35350695 170.10431253 -86.70778268 167.20845721 -86.0625 164.3125 C-85.88009766 163.49587891 -85.69769531 162.67925781 -85.50976562 161.83789062 C-85.33251953 161.04189453 -85.15527344 160.24589844 -84.97265625 159.42578125 C-84.81031494 158.69786377 -84.64797363 157.96994629 -84.48071289 157.2199707 C-84.32207764 156.48738037 -84.16344238 155.75479004 -84 155 C-83.81985352 154.20343994 -83.63970703 153.40687988 -83.45410156 152.58618164 C-80.37858236 135.07060372 -83.21838909 116.16811124 -87 99 C-90.53167571 99.68421999 -93.28708264 101.11681641 -96.42578125 102.8515625 C-97.51810059 103.4489624 -98.61041992 104.0463623 -99.73583984 104.66186523 C-100.31791199 104.98178436 -100.89998413 105.30170349 -101.49969482 105.63131714 C-112.1545284 111.47172716 -122.9169696 117.08855557 -133.82894897 122.43353271 C-135.18635783 123.09959337 -136.54171793 123.76984663 -137.89492798 124.44439697 C-139.79662613 125.39055554 -141.70542482 126.32047377 -143.6171875 127.24609375 C-144.70628418 127.77904053 -145.79538086 128.3119873 -146.91748047 128.86108398 C-150.23497889 130.08681899 -152.49493528 130.39090962 -156 130 C-159.5633205 127.53308581 -162.74632675 125.26248906 -164 121 C-164.5483003 116.77025482 -164.47112186 114.72284393 -162.12109375 111.1171875 C-158.43367839 106.93590444 -153.56644913 104.89493041 -148.625 102.5 C-119.79768272 87.95858497 -92.67409903 69.52960253 -67 50 C-66.06148193 49.2889209 -66.06148193 49.2889209 -65.10400391 48.56347656 C-61.37985002 45.73783909 -57.68190655 42.88061008 -54 40 C-53.16726563 39.3503125 -52.33453125 38.700625 -51.4765625 38.03125 C-40.61896511 29.45761323 -30.22940563 20.30859171 -20 11 C-18.18914589 9.35235592 -16.37666134 7.7065019 -14.5625 6.0625 C-13.75941406 5.33160156 -12.95632813 4.60070312 -12.12890625 3.84765625 C-7.88660889 0.16580918 -5.58790848 -0.46565904 0 0 Z "
        transform="translate(576,158)" style="fill: #FDBB32;" />
    <path
        d="M0 0 C6.7172485 2.15911559 11.46530708 5.97472136 15.9375 11.3125 C17.46405183 15.17377817 17.71483811 18.9072014 17 23 C14.88972107 27.68868312 11.4833661 30.19236598 7.375 33.0625 C6.3857251 33.77031616 6.3857251 33.77031616 5.37646484 34.49243164 C3.25762647 36.00457281 1.12943665 37.50283035 -1 39 C-2.39101061 39.98643563 -3.78163778 40.97341219 -5.171875 41.9609375 C-8.00039057 43.9665582 -10.83406355 45.96458687 -13.671875 47.95703125 C-16.56357995 49.98736339 -19.44870543 52.02650145 -22.328125 54.07421875 C-29.86970099 59.43214512 -37.45163807 64.70582301 -45.18017578 69.79150391 C-49.72176069 72.71774786 -49.72176069 72.71774786 -54 76 C-54 76.66 -54 77.32 -54 78 C-51.86819638 79.80544604 -49.72634919 81.50596482 -47.5 83.1875 C-46.20847479 84.18339248 -44.91810379 85.18078365 -43.62890625 86.1796875 C-43.00258301 86.66405273 -42.37625977 87.14841797 -41.73095703 87.64746094 C-35.17633544 92.76912576 -30.02241369 98.17753562 -24.875 104.6875 C-20.17855026 108.46507914 -14.67515622 109.31207445 -8.83618164 110.4050293 C-2.03571397 111.69429172 4.55100161 113.48021087 11.1875 115.4375 C12.22841797 115.73720703 13.26933594 116.03691406 14.34179688 116.34570312 C19.74227822 117.92641544 24.86204182 119.68288161 30 122 C31.60755276 122.63613476 33.21709679 123.26725028 34.828125 123.89453125 C58.46938032 133.31618799 80.13954357 147.42788993 98.67578125 164.828125 C100.65065878 166.67355677 102.66242492 168.41069993 104.75 170.125 C107.76512555 172.69317753 110.33669989 175.49539392 112.89453125 178.515625 C114.59938135 180.52728486 116.32739989 182.50948013 118.07421875 184.484375 C119.17466723 185.73941846 120.27492656 186.9946278 121.375 188.25 C122.17973755 189.15395508 122.17973755 189.15395508 123.00073242 190.07617188 C123.75447144 190.94338867 123.75447144 190.94338867 124.5234375 191.828125 C124.97638184 192.3427832 125.42932617 192.85744141 125.89599609 193.38769531 C127.15593013 195.22772281 127.58299923 196.82357446 128 199 C128.66 199 129.32 199 130 199 C131.7648772 201.27656903 133.39495725 203.55088799 135 205.9375 C135.73259033 207.01753296 135.73259033 207.01753296 136.47998047 208.11938477 C146.56909417 223.16835498 156.06082133 239.23806976 163 256 C163.39964966 256.96389648 163.39964966 256.96389648 163.80737305 257.94726562 C164.66716985 260.02575265 165.52171203 262.10633302 166.375 264.1875 C168.43943791 269.21650988 170.51659869 274.23921081 172.625 279.25 C177.30276168 290.49929201 181.39397584 301.86812808 185 313.5 C185.21821411 314.20297211 185.43642822 314.90594421 185.66125488 315.63021851 C192.81513125 338.76328656 197.27125836 362.102204 201 386 C201.17074539 387.03581711 201.34149078 388.07163422 201.51741028 389.13883972 C202.82319591 397.49406847 203.30715358 405.60877799 203.30078125 414.05859375 C203.30506638 415.36361343 203.3093515 416.66863312 203.31376648 418.01319885 C203.3211638 420.76543259 203.32099114 423.51753806 203.31567383 426.26977539 C203.31109695 429.01799122 203.31776368 431.76575874 203.33618164 434.51391602 C203.52127254 462.4216098 201.58363786 489.72146123 195.63525391 517.07617188 C195.04076761 519.81236246 194.4777212 522.55341609 193.91796875 525.296875 C189.20668486 547.46450463 181.68019207 572.9797119 169 592 C168.34 592 167.68 592 167 592 C166.74476563 590.98353394 166.74476563 590.98353394 166.484375 589.9465332 C156.89419835 552.13101285 141.46218906 518.30961066 118 487 C117.26523437 485.99195313 116.53046875 484.98390625 115.7734375 483.9453125 C110.9765799 477.41955216 105.87839981 471.22398105 100.61328125 465.078125 C98.38804163 462.47413823 96.24260373 459.81770032 94.125 457.125 C84.23269897 444.66877605 73.40814222 433.01547191 62.56640625 421.390625 C57.80130426 416.20434415 53.54727684 410.80059508 49.375 405.12890625 C46.89431709 401.86076972 44.29612521 398.73699967 41.625 395.625 C33.78752759 386.47008645 26.37065131 377.01902815 19.3125 367.25 C18.87800537 366.65324463 18.44351074 366.05648926 17.99584961 365.44165039 C15 361.24011667 15 361.24011667 15 359 C14.34 359 13.68 359 13 359 C12.443125 357.5459375 12.443125 357.5459375 11.875 356.0625 C10.15408561 351.98883792 7.7534012 348.51758174 5.20703125 344.91796875 C4 343 4 343 4 341 C3.34 341 2.68 341 2 341 C1.76635742 340.45327637 1.53271484 339.90655273 1.29199219 339.34326172 C-1.12897063 333.77552239 -3.84774131 328.45384894 -6.75 323.125 C-11.47375474 314.31528966 -15.43883461 305.2975227 -19.17089844 296.03076172 C-19.9554411 294.10914044 -20.77396993 292.20636568 -21.60546875 290.3046875 C-37.80397606 251.91830883 -39.1221279 204.70242769 -31.9765625 164.09375 C-29.9490401 152.46623663 -28.44603356 140.91675609 -28.12823486 129.1144104 C-28.0849937 127.72352656 -28.02312184 126.33307573 -27.94110107 124.94393921 C-27.60688501 118.92667798 -27.46830975 114.02526321 -31.20092773 109.08984375 C-34.00935723 106.49134222 -36.89449323 104.23207503 -40 102 C-41.55335586 100.75320088 -43.10438355 99.50349181 -44.65234375 98.25 C-46.07674487 97.16143329 -47.50505399 96.07795845 -48.9375 95 C-49.66517578 94.44183594 -50.39285156 93.88367188 -51.14257812 93.30859375 C-54.34271395 90.87848146 -57.352733 88.71707224 -61 87 C-62.87684543 101.91421817 -63.22032453 117.2655849 -58.875 131.75 C-57.25912897 137.75180667 -57.85094373 142.37568151 -60.1875 148.0625 C-63.86680789 157.76536053 -65.85969632 167.86693526 -68 178 C-72.95942369 177.44476017 -77.66164174 176.70207091 -82.5 175.4375 C-84.06234375 175.03337891 -84.06234375 175.03337891 -85.65625 174.62109375 C-86.81640625 174.31365234 -86.81640625 174.31365234 -88 174 C-87.731875 172.824375 -87.46375 171.64875 -87.1875 170.4375 C-87.00832031 169.59703125 -86.82914062 168.7565625 -86.64453125 167.890625 C-86.20783544 165.93211045 -85.72437422 163.98354591 -85.19921875 162.046875 C-80.12940678 141.38318639 -82.47729902 119.53258133 -87 99 C-90.53167571 99.68421999 -93.28708264 101.11681641 -96.42578125 102.8515625 C-97.51810059 103.4489624 -98.61041992 104.0463623 -99.73583984 104.66186523 C-100.31791199 104.98178436 -100.89998413 105.30170349 -101.49969482 105.63131714 C-112.1545284 111.47172716 -122.9169696 117.08855557 -133.82894897 122.43353271 C-135.18635783 123.09959337 -136.54171793 123.76984663 -137.89492798 124.44439697 C-139.79662613 125.39055554 -141.70542482 126.32047377 -143.6171875 127.24609375 C-144.70628418 127.77904053 -145.79538086 128.3119873 -146.91748047 128.86108398 C-150.23497889 130.08681899 -152.49493528 130.39090962 -156 130 C-159.5633205 127.53308581 -162.74632675 125.26248906 -164 121 C-164.5483003 116.77025482 -164.47112186 114.72284393 -162.12109375 111.1171875 C-158.43367839 106.93590444 -153.56644913 104.89493041 -148.625 102.5 C-119.79768272 87.95858497 -92.67409903 69.52960253 -67 50 C-66.37432129 49.52594727 -65.74864258 49.05189453 -65.10400391 48.56347656 C-61.37985002 45.73783909 -57.68190655 42.88061008 -54 40 C-52.75089844 39.02546875 -52.75089844 39.02546875 -51.4765625 38.03125 C-40.61896511 29.45761323 -30.22940563 20.30859171 -20 11 C-18.18914589 9.35235592 -16.37666134 7.7065019 -14.5625 6.0625 C-13.75941406 5.33160156 -12.95632813 4.60070312 -12.12890625 3.84765625 C-7.88660889 0.16580918 -5.58790848 -0.46565904 0 0 Z "
        transform="translate(576,158)" style="fill: #4C8D34;" />
    <path
        d="M0 0 C4.31390765 1.45654077 7.5980994 3.76074164 11.125 6.5625 C11.68759521 7.00287598 12.25019043 7.44325195 12.82983398 7.89697266 C14.55982936 9.25655007 16.28132558 10.62614729 18 12 C18.53093262 12.42361816 19.06186523 12.84723633 19.60888672 13.28369141 C22.77276503 15.81699606 25.92402727 18.36051756 29 21 C29.69657715 21.57363281 30.3931543 22.14726562 31.11083984 22.73828125 C33.57687141 25.69063541 33.52877471 27.37808043 33.56640625 31.1953125 C33.57937744 32.45239014 33.59234863 33.70946777 33.60571289 35.00463867 C33.593521 36.37811387 33.57905653 37.75157048 33.5625 39.125 C33.56023407 39.82219147 33.55796814 40.51938293 33.55563354 41.23770142 C33.48636343 54.83297528 31.77455657 68.03438056 29.52604675 81.42172241 C22.49861533 123.34278132 24.39519625 175.27002165 44.703125 213.44140625 C46.20357638 216.40163413 47.43437327 219.4270235 48.6875 222.5 C51.50816066 229.23414273 54.94977496 235.49923872 58.66088867 241.78320312 C61.03058389 245.87768519 62.5961691 249.18450703 63 254 C63.66 254 64.32 254 65 254 C66.6442478 256.22003132 68.14753884 258.42299868 69.625 260.75 C70.04523438 261.38421875 70.46546875 262.0184375 70.8984375 262.671875 C73.12043182 266.13472328 74 267.78907329 74 272 C74.66 272 75.32 272 76 272 C77.78828333 274.42652586 79.46893176 276.86040584 81.125 279.375 C87.5020828 288.84617196 94.58265921 297.54326914 101.97973633 306.22607422 C105.79115989 310.71286352 109.44611719 315.30596366 113 320 C112.34 320.33 111.68 320.66 111 321 C110.44627421 322.77350021 110.44627421 322.77350021 110.125 325 C107.75902689 337.68375056 104.55810689 349.80557996 100.5 362.0625 C99.93043579 363.79294556 99.93043579 363.79294556 99.34936523 365.55834961 C97.29206783 371.65738568 95.01275193 377.31484886 92 383 C91.19714481 384.76578887 90.40407776 386.53609221 89.625 388.3125 C87.46430699 393.12070882 85.0306521 397.7135536 82.4296875 402.296875 C80.92759044 405.02134455 80.92759044 405.02134455 79.75390625 408.1171875 C77.4744227 413.53977337 74.19359822 418.41494531 71.0625 423.375 C70.39444336 424.43702637 69.72638672 425.49905273 69.03808594 426.59326172 C60.72398493 439.71401425 51.80376703 452.22948404 42.08203125 464.33984375 C40.02208953 466.78990533 40.02208953 466.78990533 39 469 C38.34 469 37.68 469 37 469 C36.78085937 469.5259375 36.56171875 470.051875 36.3359375 470.59375 C34.49879211 473.90276041 32.09184884 476.65255386 29.625 479.5 C29.09769287 480.11222412 28.57038574 480.72444824 28.02709961 481.35522461 C22.64001919 487.535485 16.87000969 493.28334325 11 499 C8.62345242 501.36220943 6.25918577 503.7320117 3.9296875 506.140625 C-10.32541133 520.77513711 -10.32541133 520.77513711 -17 523 C-17 523.66 -17 524.32 -17 525 C-19.33739156 526.91848242 -21.68418827 528.72110802 -24.125 530.5 C-24.85348145 531.03681396 -25.58196289 531.57362793 -26.33251953 532.12670898 C-27.83454256 533.23077266 -29.33895958 534.33158651 -30.84570312 535.42919922 C-32.75309342 536.81996862 -34.65115063 538.22231351 -36.546875 539.62890625 C-55.71190994 553.72397433 -76.85673824 566.23384777 -99 575 C-100.2372583 575.49113281 -100.2372583 575.49113281 -101.49951172 575.9921875 C-128.91523457 586.73039075 -165.97313707 597.47617164 -195 587 C-196.20269531 586.60167969 -197.40539062 586.20335937 -198.64453125 585.79296875 C-209.94350849 581.97223303 -209.94350849 581.97223303 -214 579 C-214 578.01 -214 577.02 -214 576 C-214.66 576 -215.32 576 -216 576 C-216.33 574.68 -216.66 573.36 -217 572 C-217.7425 571.95875 -218.485 571.9175 -219.25 571.875 C-223.12804301 570.64107722 -224.08293561 568.47911685 -226 565 C-226 564.34 -226 563.68 -226 563 C-226.639375 562.731875 -227.27875 562.46375 -227.9375 562.1875 C-230 561 -230 561 -231 558 C-229 556 -229 556 -226.21289062 555.86474609 C-225.03919922 555.91711426 -223.86550781 555.96948242 -222.65625 556.0234375 C-220.7062207 556.10126465 -220.7062207 556.10126465 -218.71679688 556.18066406 C-218.02835693 556.21260864 -217.33991699 556.24455322 -216.63061523 556.27746582 C-213.77562831 556.40815991 -210.91987004 556.51180233 -208.06384277 556.61682129 C-205.96303935 556.69436975 -203.86237486 556.77501293 -201.76171875 556.85644531 C-186.50732352 557.43858345 -172.10102537 556.38210936 -157 554 C-156.30841797 553.89316895 -155.61683594 553.78633789 -154.90429688 553.67626953 C-136.60630369 550.74685895 -118.69630238 544.95787274 -102 537 C-99.95962405 536.08046395 -97.91808247 535.16350675 -95.875 534.25 C-88.61494323 530.91663069 -81.81320778 527.16466685 -75 523 C-73.9378125 522.35417969 -72.875625 521.70835937 -71.78125 521.04296875 C-65.9905965 517.5049877 -60.27340954 513.9142894 -54.70703125 510.03125 C-53 509 -53 509 -51 509 C-51 508.34 -51 507.68 -51 507 C-49.02 506.34 -47.04 505.68 -45 505 C-45 504.34 -45 503.68 -45 503 C-43.68 502.67 -42.36 502.34 -41 502 C-41 501.34 -41 500.68 -41 500 C-39.28480923 498.5760131 -37.5012088 497.2336784 -35.6875 495.9375 C-34.70136719 495.22464844 -33.71523438 494.51179688 -32.69921875 493.77734375 C-30 492 -30 492 -27 491 C-27 490.34 -27 489.68 -27 489 C-26.34 489 -25.68 489 -25 489 C-25 488.34 -25 487.68 -25 487 C-23.42578125 485.703125 -23.42578125 485.703125 -21.3125 484.25 C-17.56648295 481.54235259 -14.92217925 478.5965283 -12 475 C-10.22482474 473.40699338 -8.40866017 471.88989721 -6.55078125 470.39453125 C-4.7459798 468.88740659 -4.7459798 468.88740659 -3 466 C-2.34 466 -1.68 466 -1 466 C-1 465.01 -1 464.02 -1 463 C-0.34 463 0.32 463 1 463 C1 462.34 1 461.68 1 461 C1.66 461 2.32 461 3 461 C3 460.34 3 459.68 3 459 C3.66 459 4.32 459 5 459 C5 458.34 5 457.68 5 457 C5.66 457 6.32 457 7 457 C7 456.34 7 455.68 7 455 C7.66 455 8.32 455 9 455 C9 454.34 9 453.68 9 453 C9.66 453 10.32 453 11 453 C11.33 451.68 11.66 450.36 12 449 C12.66 449 13.32 449 14 449 C14.103125 448.401875 14.20625 447.80375 14.3125 447.1875 C15.11135651 444.64568383 16.10071545 443.82623514 18 442 C18.515625 441.113125 19.03125 440.22625 19.5625 439.3125 C20.036875 438.549375 20.51125 437.78625 21 437 C21.66 437 22.32 437 23 437 C23.33 435.68 23.66 434.36 24 433 C24.66 433 25.32 433 26 433 C26.144375 432.38125 26.28875 431.7625 26.4375 431.125 C27 429 27 429 28 427 C28.66 427 29.32 427 30 427 C30.309375 426.05125 30.61875 425.1025 30.9375 424.125 C32 421 32 421 33 419 C33.66 419 34.32 419 35 419 C35.268125 418.13375 35.53625 417.2675 35.8125 416.375 C36.97111987 413.08208036 38.38209839 410.08872125 40 407 C40.66 407 41.32 407 42 407 C42.15855469 406.41226807 42.31710937 405.82453613 42.48046875 405.21899414 C44.42820821 398.34204803 47.06680646 391.94660155 50 385.4375 C59.57328336 364.1087878 62.90480169 344.38150894 62 321 C61.95617187 319.75734375 61.91234375 318.5146875 61.8671875 317.234375 C61.31307917 308.03135835 59.4212718 299.13514012 55 291 C54.36065816 289.42240326 53.73721626 287.83832009 53.125 286.25 C51.40473379 281.86397774 49.38354862 277.71816224 47.23046875 273.53125 C45.56744194 270.11016628 44.21955945 266.59473009 42.89453125 263.03125 C42.07157831 260.83014766 42.07157831 260.83014766 40 259 C39.30096425 257.50287484 38.66240956 255.97702695 38.0625 254.4375 C37.74410156 253.63183594 37.42570312 252.82617188 37.09765625 251.99609375 C36.22657516 249.61844536 35.41152572 247.2406357 34.62109375 244.8359375 C33.19478102 240.51659384 31.63122154 236.25741727 30.04370117 231.99511719 C27.16017141 224.23825349 24.37875046 216.5916581 22.57421875 208.5 C22.00633244 206.02756981 21.28164585 203.66238921 20.5 201.25 C19.19443261 197.03046004 18.37852815 192.7824786 17.625 188.4375 C16.43681785 181.59784663 14.67951149 175.03645391 12.62548828 168.40795898 C11 163.16217822 11 163.16217822 11 161 C10.34 161 9.68 161 9 161 C8.75507812 160.35675781 8.51015625 159.71351563 8.2578125 159.05078125 C5.23382085 151.74106351 1.23258026 146.0351204 -3.6953125 139.9453125 C-6 137 -6 137 -7.4765625 134.51171875 C-9.42566827 131.29819308 -11.80173371 128.52319252 -14.25 125.6875 C-14.73871582 125.11572021 -15.22743164 124.54394043 -15.73095703 123.95483398 C-18.9640238 120.17936719 -22.22696516 116.43027281 -25.515625 112.703125 C-26.91631965 111.09601219 -28.27512735 109.46234435 -29.625 107.8125 C-33.55001672 103.16445389 -37.95932032 99.04726206 -42.4375 94.9375 C-43.34371094 94.10089844 -44.24992188 93.26429688 -45.18359375 92.40234375 C-47.22702746 90.65933164 -49.1184964 89.20446316 -51.34765625 87.75390625 C-52.22292969 87.17511719 -53.09820312 86.59632813 -54 86 C-54 85.67 -54 85.34 -54 85 C-42.12731977 84.67750265 -31.53221077 84.94856878 -20 88 C-17.54310498 88.56874942 -15.08480315 89.13146269 -12.625 89.6875 C-10.74973624 90.12386806 -8.87463183 90.5609251 -7 91 C-6.90203125 90.23558594 -6.8040625 89.47117187 -6.703125 88.68359375 C-5.26845611 78.40592265 -3.18591403 68.14392205 0.75 58.5 C3.07813265 51.98122859 1.94160054 47.05323054 -0.24609375 40.72265625 C-2.08323438 34.08800847 -2.15809028 27.39564302 -2.125 20.5625 C-2.12886719 19.76779297 -2.13273438 18.97308594 -2.13671875 18.15429688 C-2.11405612 4.22811224 -2.11405612 4.22811224 0 0 Z "
        transform="translate(515,245)" style="fill: #FB8D13;" />
    <path
        d="M0 0 C6.7172485 2.15911559 11.46530708 5.97472136 15.9375 11.3125 C17.46405183 15.17377817 17.71483811 18.9072014 17 23 C14.88972107 27.68868312 11.4833661 30.19236598 7.375 33.0625 C6.3857251 33.77031616 6.3857251 33.77031616 5.37646484 34.49243164 C3.25762647 36.00457281 1.12943665 37.50283035 -1 39 C-2.39101061 39.98643563 -3.78163778 40.97341219 -5.171875 41.9609375 C-8.00039057 43.9665582 -10.83406355 45.96458687 -13.671875 47.95703125 C-16.56357995 49.98736339 -19.44870543 52.02650145 -22.328125 54.07421875 C-29.80438333 59.3852497 -37.30888859 64.62532872 -45.00439453 69.61572266 C-48.91837979 72.17891244 -52.46071144 74.95481546 -56 78 C-56.66 77.67 -57.32 77.34 -58 77 C-58.33 80.3 -58.66 83.6 -59 87 C-59.66 87 -60.32 87 -61 87 C-62.87684543 101.91421817 -63.22032453 117.2655849 -58.875 131.75 C-57.25912897 137.75180667 -57.85094373 142.37568151 -60.1875 148.0625 C-63.86680789 157.76536053 -65.85969632 167.86693526 -68 178 C-72.95942369 177.44476017 -77.66164174 176.70207091 -82.5 175.4375 C-84.06234375 175.03337891 -84.06234375 175.03337891 -85.65625 174.62109375 C-86.81640625 174.31365234 -86.81640625 174.31365234 -88 174 C-87.731875 172.824375 -87.46375 171.64875 -87.1875 170.4375 C-87.00832031 169.59703125 -86.82914062 168.7565625 -86.64453125 167.890625 C-86.20783544 165.93211045 -85.72437422 163.98354591 -85.19921875 162.046875 C-80.12940678 141.38318639 -82.47729902 119.53258133 -87 99 C-90.53167571 99.68421999 -93.28708264 101.11681641 -96.42578125 102.8515625 C-97.51810059 103.4489624 -98.61041992 104.0463623 -99.73583984 104.66186523 C-100.31791199 104.98178436 -100.89998413 105.30170349 -101.49969482 105.63131714 C-112.1545284 111.47172716 -122.9169696 117.08855557 -133.82894897 122.43353271 C-135.18635783 123.09959337 -136.54171793 123.76984663 -137.89492798 124.44439697 C-139.79662613 125.39055554 -141.70542482 126.32047377 -143.6171875 127.24609375 C-144.70628418 127.77904053 -145.79538086 128.3119873 -146.91748047 128.86108398 C-150.23497889 130.08681899 -152.49493528 130.39090962 -156 130 C-159.5633205 127.53308581 -162.74632675 125.26248906 -164 121 C-164.5483003 116.77025482 -164.47112186 114.72284393 -162.12109375 111.1171875 C-158.43367839 106.93590444 -153.56644913 104.89493041 -148.625 102.5 C-119.79768272 87.95858497 -92.67409903 69.52960253 -67 50 C-66.37432129 49.52594727 -65.74864258 49.05189453 -65.10400391 48.56347656 C-61.37985002 45.73783909 -57.68190655 42.88061008 -54 40 C-52.75089844 39.02546875 -52.75089844 39.02546875 -51.4765625 38.03125 C-40.61896511 29.45761323 -30.22940563 20.30859171 -20 11 C-18.18914589 9.35235592 -16.37666134 7.7065019 -14.5625 6.0625 C-13.75941406 5.33160156 -12.95632813 4.60070312 -12.12890625 3.84765625 C-7.88660889 0.16580918 -5.58790848 -0.46565904 0 0 Z "
        transform="translate(576,158)" style="fill: #744D22;" />
    <path
        d="M0 0 C4.31390765 1.45654077 7.5980994 3.76074164 11.125 6.5625 C11.68759521 7.00287598 12.25019043 7.44325195 12.82983398 7.89697266 C14.55982936 9.25655007 16.28132558 10.62614729 18 12 C18.79639893 12.63542725 18.79639893 12.63542725 19.60888672 13.28369141 C22.77276503 15.81699606 25.92402727 18.36051756 29 21 C29.69657715 21.57363281 30.3931543 22.14726562 31.11083984 22.73828125 C33.57687141 25.69063541 33.52877471 27.37808043 33.56640625 31.1953125 C33.57937744 32.45239014 33.59234863 33.70946777 33.60571289 35.00463867 C33.593521 36.37811387 33.57905653 37.75157048 33.5625 39.125 C33.56023407 39.82219147 33.55796814 40.51938293 33.55563354 41.23770142 C33.48287887 55.51686998 31.55257344 69.36274068 29.19140625 83.41796875 C28.04919658 90.26512803 27.38962704 97.07173629 27 104 C23.07668372 103.2918733 20.24494783 102.18719965 16.75 100.25 C9.17066489 96.32769408 1.20469157 94.19699087 -7 92 C-6.226936 81.17710393 -3.35214949 70.64145371 0.25 60.4375 C2.74992811 53.09581389 2.25290777 47.95406646 -0.24609375 40.72265625 C-2.08323438 34.08800847 -2.15809028 27.39564302 -2.125 20.5625 C-2.12886719 19.76779297 -2.13273438 18.97308594 -2.13671875 18.15429688 C-2.11405612 4.22811224 -2.11405612 4.22811224 0 0 Z "
        transform="translate(515,245)" style="fill: #FAFBF8;" />
    <path
        d="M0 0 C0.66 0 1.32 0 2 0 C-0.89507417 10.00116531 -6.55433364 18.82448082 -12.0625 27.5625 C-13.0510498 29.13523682 -13.0510498 29.13523682 -14.05957031 30.73974609 C-22.33782066 43.81266631 -31.23361628 56.2760524 -40.91796875 68.33984375 C-42.97791047 70.78990533 -42.97791047 70.78990533 -44 73 C-44.66 73 -45.32 73 -46 73 C-46.40992188 73.88425659 -46.40992188 73.88425659 -46.828125 74.78637695 C-47.96484874 76.93360073 -49.17292709 78.57884525 -50.75 80.41796875 C-51.2759375 81.03220703 -51.801875 81.64644531 -52.34375 82.27929688 C-52.8903125 82.90900391 -53.436875 83.53871094 -54 84.1875 C-54.81984375 85.14946289 -54.81984375 85.14946289 -55.65625 86.13085938 C-59.73967996 90.86983998 -59.73967996 90.86983998 -62 92 C-62 88 -62 88 -60.5625 86.375 C-59.7890625 85.694375 -59.7890625 85.694375 -59 85 C-58.505 84.01 -58.505 84.01 -58 83 C-57.01 83 -56.02 83 -55 83 C-55 82.01 -55 81.02 -55 80 C-54.34 80 -53.68 80 -53 80 C-53 79.34 -53 78.68 -53 78 C-52.01 77.505 -52.01 77.505 -51 77 C-50.67 76.01 -50.34 75.02 -50 74 C-48.5625 72.3125 -48.5625 72.3125 -47 71 C-46.34 71 -45.68 71 -45 71 C-44.7525 70.46375 -44.505 69.9275 -44.25 69.375 C-40.75368013 62.73199225 -36.05177217 56.53289333 -31 51 C-30.34 51 -29.68 51 -29 51 C-28.814375 50.1028125 -28.814375 50.1028125 -28.625 49.1875 C-28 47 -28 47 -26 44 C-25.34 44 -24.68 44 -24 44 C-23.67 42.35 -23.34 40.7 -23 39 C-22.34 39 -21.68 39 -21 39 C-20.855625 38.21625 -20.71125 37.4325 -20.5625 36.625 C-20 34 -20 34 -19 32 C-18.34 32 -17.68 32 -17 32 C-16.34 30.02 -15.68 28.04 -15 26 C-14.34 26 -13.68 26 -13 26 C-12.81244141 25.15501953 -12.81244141 25.15501953 -12.62109375 24.29296875 C-11.95875861 21.84774405 -11.07861701 19.63231431 -10.0625 17.3125 C-9.72347656 16.52488281 -9.38445313 15.73726562 -9.03515625 14.92578125 C-8 13 -8 13 -6 12 C-4.89855315 10.01111799 -3.86581405 7.9837464 -2.875 5.9375 C-2.33617187 4.83277344 -1.79734375 3.72804688 -1.2421875 2.58984375 C-0.83226562 1.73519531 -0.42234375 0.88054688 0 0 Z "
        transform="translate(598,641)" style="fill: #EC9230;" />
    <path
        d="M0 0 C-11.07428739 6.37027874 -22.11304892 12.29415206 -34 17 C-34.82483887 17.32742188 -35.64967773 17.65484375 -36.49951172 17.9921875 C-46.65040253 21.9680932 -56.84543491 25.45646362 -67.4375 28.0625 C-68.29496826 28.2785791 -69.15243652 28.4946582 -70.03588867 28.71728516 C-75.07802798 29.88112519 -78.93002261 30.08496151 -84 29 C-79.68516188 26.68847958 -76.14284126 25.86554645 -71.25 25.9375 C-70.45078125 25.94652344 -69.6515625 25.95554687 -68.828125 25.96484375 C-68.22484375 25.97644531 -67.6215625 25.98804688 -67 26 C-66.67 25.01 -66.34 24.02 -66 23 C-63.234375 22.12109375 -63.234375 22.12109375 -59.75 21.4375 C-55.61877977 20.61032129 -51.86487613 19.69269951 -48 18 C-48 17.01 -48 16.02 -48 15 C-47.34 15 -46.68 15 -46 15 C-46 15.66 -46 16.32 -46 17 C-45.06148193 16.68192383 -45.06148193 16.68192383 -44.10400391 16.35742188 C-41.27871209 15.40183163 -38.45188651 14.45086182 -35.625 13.5 C-34.64015625 13.16613281 -33.6553125 12.83226562 -32.640625 12.48828125 C-31.69960938 12.17246094 -30.75859375 11.85664062 -29.7890625 11.53125 C-28.91975098 11.23798828 -28.05043945 10.94472656 -27.15478516 10.64257812 C-25 10 -25 10 -23 10 C-23 9.01 -23 8.02 -23 7 C-20.36 6.67 -17.72 6.34 -15 6 C-15 5.34 -15 4.68 -15 4 C-14.13375 3.731875 -13.2675 3.46375 -12.375 3.1875 C-8.95997487 2.07949211 -8.95997487 2.07949211 -5.8125 0.3125 C-3 -1 -3 -1 0 0 Z "
        transform="translate(450,803)" style="fill: #EB932B;" />
    <path
        d="M0 0 C4.01303508 1.556846 7.9092928 3.31138857 11.8125 5.125 C12.97394531 5.66382813 14.13539063 6.20265625 15.33203125 6.7578125 C16.21246094 7.16773438 17.09289062 7.57765625 18 8 C18.01458252 9.060979 18.02916504 10.12195801 18.04418945 11.21508789 C18.42932307 39.66034275 18.42932307 39.66034275 21.65234375 67.89453125 C22.15239377 70.92292406 22.57508966 73.96025677 23 77 C19.73667085 72.10500628 18.78661739 67.56833299 18.5 61.75 C18.30720163 57.87475273 17.86113647 54.268229 17 50.49609375 C15.34409629 42.57674921 15.57161222 34.49338973 15.43359375 26.43554688 C15.35785393 17.50195338 15.35785393 17.50195338 13 9 C10.01604708 7.61598022 10.01604708 7.61598022 7 7 C6.67 6.34 6.34 5.68 6 5 C5.175 4.690625 4.35 4.38125 3.5 4.0625 C2.675 3.711875 1.85 3.36125 1 3 C0.67 2.01 0.34 1.02 0 0 Z "
        transform="translate(523,341)" style="fill: #D89221;" />
    <path
        d="M0 0 C0.33 0 0.66 0 1 0 C3.7405606 10.184688 5.4852558 19.83928381 5.82421875 30.390625 C5.97127223 33.41012314 6.15554709 36.1016197 7 39 C7.66 39.33 8.32 39.66 9 40 C9.125 43.375 9.125 43.375 9 47 C8.34 47.66 7.68 48.32 7 49 C6.37872712 51.92090635 6.37872712 51.92090635 6 55.36328125 C5.835 56.64267578 5.67 57.92207031 5.5 59.24023438 C5.33252226 60.59755642 5.16586335 61.95497973 5 63.3125 C4.67450321 65.95557209 4.33962131 68.5969296 4 71.23828125 C3.855625 72.41430908 3.71125 73.59033691 3.5625 74.80200195 C3.03726883 77.7881144 2.24293609 80.24579605 1 83 C-0.52619867 79.02745051 0.55796156 75.50565564 1.4140625 71.50390625 C3.16515631 62.47807382 3.45930961 53.6807462 3.39111328 44.5065918 C3.37498744 41.93549778 3.39109154 39.36596974 3.41015625 36.79492188 C3.42029963 27.36799987 2.69330336 18.59426101 0.64306641 9.38500977 C0.03063338 6.16124976 -0.11816661 3.27083924 0 0 Z "
        transform="translate(277,628)" style="fill: #F4BE46;" />
    <path
        d="M0 0 C0 3.80672941 -0.75360239 4.91120329 -3 8 C-6.35027278 11.21369091 -9.9600017 14.13947752 -13.53515625 17.09765625 C-18.72829065 21.53884359 -22.46261793 25.66958813 -25.6484375 31.73828125 C-27.15599875 34.26104994 -28.7863805 36.07300454 -31 38 C-31.66 38 -32.32 38 -33 38 C-33.33 38.99 -33.66 39.98 -34 41 C-35.485 41.495 -35.485 41.495 -37 42 C-35.40404922 36.89295751 -32.27625132 33.12952561 -29 29 C-28.29037109 28.08541016 -28.29037109 28.08541016 -27.56640625 27.15234375 C-26.42949416 25.72529979 -25.22056709 24.35618566 -24 23 C-23.34 23 -22.68 23 -22 23 C-21.34 21.35 -20.68 19.7 -20 18 C-19.34 18 -18.68 18 -18 18 C-17.67 17.01 -17.34 16.02 -17 15 C-16.34 15 -15.68 15 -15 15 C-14.67 14.01 -14.34 13.02 -14 12 C-12.36328125 10.3515625 -12.36328125 10.3515625 -10.3125 8.625 C-9.59707031 8.01785156 -8.88164062 7.41070312 -8.14453125 6.78515625 C-7.43683594 6.19605469 -6.72914063 5.60695313 -6 5 C-5.07767578 4.22462891 -5.07767578 4.22462891 -4.13671875 3.43359375 C-2.76301179 2.2828273 -1.38231603 1.14041072 0 0 Z "
        transform="translate(335,371)" style="fill: #F4C14E;" />
    <path
        d="M0 0 C6.4596331 1.32505294 10.38917374 5.59409935 15 10 C13.2734375 13.8828125 13.2734375 13.8828125 10.8125 14.9375 C6.24472953 15.03900601 2.76013401 13.15508795 -1 10.6875 C-2.59421162 7.99726789 -1.73277074 5.93108297 -1 3 C-0.67 2.01 -0.34 1.02 0 0 Z "
        transform="translate(518,235)" style="fill: #498932;" />
    <path
        d="M0 0 C0.45890625 0.39832031 0.9178125 0.79664063 1.390625 1.20703125 C5.31674827 4.60015709 5.31674827 4.60015709 9.4375 7.75 C9.953125 8.1625 10.46875 8.575 11 9 C11 9.66 11 10.32 11 11 C8 12 8 12 6 11 C6.33 13.31 6.66 15.62 7 18 C1.27445024 13.74093983 -4.37992202 9.39719064 -10 5 C-7.96038497 4.4794288 -5.94884037 3.99097183 -3.875 3.625 C-1.61263271 3.08405139 -1.61263271 3.08405139 0 0 Z "
        transform="translate(533,245)" style="fill: #4F893E;" />
    <path
        d="M0 0 C6.80135298 6.62237001 6.80135298 6.62237001 7.30078125 10.0859375 C7.30658203 11.21902344 7.30658203 11.21902344 7.3125 12.375 C7.33763672 13.50035156 7.33763672 13.50035156 7.36328125 14.6484375 C6.64546206 19.29496603 4.27503858 21.94811171 0.671875 24.75390625 C-0.62858289 25.69957391 -1.93611356 26.63558012 -3.25 27.5625 C-4.21486328 28.26536133 -4.21486328 28.26536133 -5.19921875 28.98242188 C-9.3259381 31.9508367 -13.54735704 34.5487393 -18 37 C-18 35.68 -18 34.36 -18 33 C-15.525 32.505 -15.525 32.505 -13 32 C-13 31.34 -13 30.68 -13 30 C-11.35 29.67 -9.7 29.34 -8 29 C-7.87625 28.401875 -7.7525 27.80375 -7.625 27.1875 C-6.79043425 24.26651987 -5.73138166 22.43374372 -3.08984375 20.8671875 C-2.37957031 20.53976563 -1.66929687 20.21234375 -0.9375 19.875 C1.73095187 18.72576774 1.73095187 18.72576774 4 17 C4.07205511 15.31391034 4.08386068 13.62499341 4.0625 11.9375 C4.05347656 11.01839844 4.04445313 10.09929687 4.03515625 9.15234375 C4.02355469 8.44207031 4.01195312 7.73179687 4 7 C3.34 7 2.68 7 2 7 C0.5393715 4.35261084 0 3.10551666 0 0 Z "
        transform="translate(586,164)" style="fill: #6F4F31;" />
    <path
        d="M0 0 C0.66 0 1.32 0 2 0 C1.41828163 3.16138269 0.54664173 4.83356018 -1.6875 7.12890625 C-2.22117187 7.68900391 -2.75484375 8.24910156 -3.3046875 8.82617188 C-3.86414063 9.39916016 -4.42359375 9.97214844 -5 10.5625 C-6.1084838 11.70546429 -7.21283965 12.8524503 -8.3125 14.00390625 C-8.80363281 14.50736572 -9.29476562 15.0108252 -9.80078125 15.52954102 C-11.23309375 17.10842391 -11.23309375 17.10842391 -12 20 C-13.63671875 21.578125 -13.63671875 21.578125 -15.6875 23.25 C-18.3783181 25.52500784 -20.77000504 27.77240286 -23 30.5 C-25.75888036 33.85600788 -28.85283328 36.6232991 -32.16796875 39.421875 C-33.86190951 40.88104785 -35.44164484 42.39822318 -37 44 C-37.66 43.34 -38.32 42.68 -39 42 C-37.38113585 40.32737283 -35.7547271 38.66204463 -34.125 37 C-33.22007812 36.071875 -32.31515625 35.14375 -31.3828125 34.1875 C-29 32 -29 32 -27 32 C-26.7306665 31.40324463 -26.46133301 30.80648926 -26.18383789 30.19165039 C-24.99987812 27.99977436 -23.8495338 26.64442964 -22.05859375 24.93359375 C-21.47883789 24.37067627 -20.89908203 23.80775879 -20.30175781 23.2277832 C-19.68655273 22.63698975 -19.07134766 22.04619629 -18.4375 21.4375 C-11.64015692 14.7860639 -5.29390796 7.94086194 0 0 Z "
        transform="translate(552,714)" style="fill: #F5EBD7;" />
    <path
        d="M0 0 C1.65 0 3.3 0 5 0 C1.05050364 4.14850199 -3.19655015 7.65714776 -7.75 11.125 C-8.48573242 11.68687012 -9.22146484 12.24874023 -9.97949219 12.82763672 C-17.7075136 18.65234187 -25.77920875 23.90273702 -34 29 C-34.94359375 29.59554687 -35.8871875 30.19109375 -36.859375 30.8046875 C-39 32 -39 32 -41 32 C-41 31.34 -41 30.68 -41 30 C-40.1646875 29.6596875 -40.1646875 29.6596875 -39.3125 29.3125 C-36.78232498 28.03005287 -36.78232498 28.03005287 -34.5625 25.375 C-32 23 -32 23 -29.1875 22.6875 C-28.465625 22.790625 -27.74375 22.89375 -27 23 C-27 22.34 -27 21.68 -27 21 C-22.64705882 17 -22.64705882 17 -19 17 C-18.67 16.01 -18.34 15.02 -18 14 C-16.68 14 -15.36 14 -14 14 C-14 13.01 -14 12.02 -14 11 C-12.35 10.67 -10.7 10.34 -9 10 C-8.67 9.01 -8.34 8.02 -8 7 C-6 5 -6 5 -3 5 C-3 4.34 -3 3.68 -3 3 C-2.01 3 -1.02 3 0 3 C0 2.01 0 1.02 0 0 Z "
        transform="translate(491,770)" style="fill: #E79531;" />
    <path
        d="M0 0 C2.18566989 0.09868895 4.3746083 0.12972037 6.5625 0.125 C7.73941406 0.12757813 8.91632813 0.13015625 10.12890625 0.1328125 C12.88227552 0.03834776 15.43365519 -0.1547431 18.1484375 -0.50390625 C24.11161829 -1.21645959 30.06549339 -1.1074862 36.0625 -1.0625 C37.21427734 -1.05798828 38.36605469 -1.05347656 39.55273438 -1.04882812 C42.36854518 -1.03714426 45.18424398 -1.02076281 48 -1 C48 -0.67 48 -0.34 48 0 C47.11915741 0.04638359 47.11915741 0.04638359 46.22052002 0.09370422 C40.05422535 0.42073177 33.88899996 0.7642525 27.72412109 1.11694336 C25.42975451 1.24609217 23.13515483 1.37117186 20.84033203 1.49194336 C17.52305125 1.66725855 14.20691201 1.85767171 10.890625 2.05078125 C9.88074524 2.10091873 8.87086548 2.15105621 7.8303833 2.20271301 C1.53080504 2.58730174 -4.23151292 3.64903659 -10.30474854 5.37712097 C-12.97103713 5.99330661 -15.27489978 6.1140257 -18 6 C-14.11314951 2.11314951 -5.46110524 -2.73055262 0 0 Z "
        transform="translate(420,329)" style="fill: #F8ECBD;" />
    <path
        d="M0 0 C-3.19563554 2.76545383 -5.88529091 3.65285401 -10 4.5 C-11.14339844 4.7475 -12.28679687 4.995 -13.46484375 5.25 C-14.63144531 5.4975 -15.79804688 5.745 -17 6 C-19.19060027 6.48623729 -21.37837491 6.98545765 -23.5625 7.5 C-24.51253906 7.7165625 -25.46257812 7.933125 -26.44140625 8.15625 C-29.15064066 9.04967692 -30.75412911 10.28043421 -33 12 C-37.88830865 13.66202494 -42.84659067 14.2642774 -48 14 C-38.22813487 7.48542324 -24.86389088 4.17430743 -13.5 1.5 C-12.82565918 1.34031738 -12.15131836 1.18063477 -11.45654297 1.01611328 C-7.58034742 0.16576858 -3.96280396 -0.14677052 0 0 Z "
        transform="translate(425,331)" style="fill: #F3C55D;" />
    <path
        d="M0 0 C0.66 0.33 1.32 0.66 2 1 C-10.92626728 12.75115207 -10.92626728 12.75115207 -18.87890625 15.21875 C-21.11767397 15.9124538 -21.11767397 15.9124538 -23.02734375 17.65625 C-25 19 -25 19 -27.25 18.6875 C-27.8275 18.460625 -28.405 18.23375 -29 18 C-21.27013 11.75031787 -12.67204217 6.822786 -4 2 C-3.30229492 1.60458008 -2.60458984 1.20916016 -1.88574219 0.80175781 C-1.26344727 0.53717773 -0.64115234 0.27259766 0 0 Z "
        transform="translate(373,346)" style="fill: #F3C04E;" />
    <path
        d="M0 0 C2.10229111 3.46259712 2.10229111 3.46259712 1.63330078 5.92651367 C1.42431152 6.61076416 1.21532227 7.29501465 1 8 C0.90913951 9.72343488 0.86935504 11.44995428 0.8671875 13.17578125 C0.86525391 14.66561523 0.86525391 14.66561523 0.86328125 16.18554688 C0.86714844 17.21744141 0.87101562 18.24933594 0.875 19.3125 C0.87113281 20.33279297 0.86726563 21.35308594 0.86328125 22.40429688 C0.77524857 31.74592155 0.77524857 31.74592155 3.125 40.6875 C4.11341176 43.29973109 3.95398577 44.42423842 3 47 C-1.17433899 38.08209398 -2.33130694 29.81103767 -2.25 20 C-2.25773437 19.06671875 -2.26546875 18.1334375 -2.2734375 17.171875 C-2.25662802 11.15408092 -1.50468022 5.82765036 0 0 Z "
        transform="translate(268,741)" style="fill: #F2C460;" />
    <path
        d="M0 0 C-3.15611413 2.6541779 -6.15170576 3.92267064 -10.0625 5.1875 C-11.10535156 5.53167969 -12.14820313 5.87585938 -13.22265625 6.23046875 C-16 7 -16 7 -19 7 C-19 7.66 -19 8.32 -19 9 C-20.60149886 9.67305018 -22.20631029 10.33822227 -23.8125 11 C-24.70582031 11.37125 -25.59914063 11.7425 -26.51953125 12.125 C-29 13 -29 13 -32 13 C-31.00048023 10.37903705 -30.28677622 9.18268707 -27.890625 7.65625 C-9.32825155 -0.47165317 -9.32825155 -0.47165317 0 0 Z "
        transform="translate(396,337)" style="fill: #FDF9D9;" />
    <path
        d="M0 0 C1.98 0 3.96 0 6 0 C5.34 1.32 4.68 2.64 4 4 C4.763125 4.886875 5.52625 5.77375 6.3125 6.6875 C8.00279169 8.69028259 9.2322751 10.42583769 10.5 12.75 C12.35208782 15.52813173 13.96731452 15.80288731 17 17 C17.8125 19.125 17.8125 19.125 18 21 C18.66 21 19.32 21 20 21 C20 21.66 20 22.32 20 23 C16.56001929 21.79135813 14.50075729 20.61442808 12 18 C11.01 17.67 10.02 17.34 9 17 C3.97387853 11.88432625 1.15396783 7.05202561 0 0 Z "
        transform="translate(281,800)" style="fill: #F0962B;" />
    <path
        d="M0 0 C0.33 0 0.66 0 1 0 C1.02716824 2.54173977 1.04691969 5.08318415 1.0625 7.625 C1.07087891 8.33785156 1.07925781 9.05070312 1.08789062 9.78515625 C1.09111328 10.48769531 1.09433594 11.19023437 1.09765625 11.9140625 C1.10289307 12.5529541 1.10812988 13.1918457 1.11352539 13.85009766 C1 16 1 16 0.51367188 18.6171875 C-0.17490631 23.15185446 -0.23421851 27.63016558 -0.31640625 32.2109375 C-0.33718735 33.17907379 -0.35796844 34.14721008 -0.37937927 35.14468384 C-0.44448984 38.22138732 -0.50357998 41.29817236 -0.5625 44.375 C-0.60572186 46.46745617 -0.6493373 48.55990426 -0.69335938 50.65234375 C-0.80013156 55.76814669 -0.90150636 60.88403125 -1 66 C-1.33 66 -1.66 66 -2 66 C-2.05105481 58.52932684 -2.08588149 51.05869933 -2.10986328 43.58789062 C-2.11986976 41.05076415 -2.13347911 38.51364905 -2.15087891 35.9765625 C-2.17536379 32.31247127 -2.18653701 28.64853362 -2.1953125 24.984375 C-2.21079636 23.30550201 -2.21079636 23.30550201 -2.22659302 21.5927124 C-2.22762571 14.20816431 -1.43816003 7.24206473 0 0 Z "
        transform="translate(268,490)" style="fill: #F1BA42;" />
    <path
        d="M0 0 C0.88336837 2.4667645 1.1312406 3.63859372 0.22265625 6.140625 C-0.16019531 6.83671875 -0.54304688 7.5328125 -0.9375 8.25 C-1.31777344 8.95640625 -1.69804687 9.6628125 -2.08984375 10.390625 C-2.39019531 10.92171875 -2.69054687 11.4528125 -3 12 C-3.66 12 -4.32 12 -5 12 C-4.6596875 13.1446875 -4.6596875 13.1446875 -4.3125 14.3125 C-4.209375 15.199375 -4.10625 16.08625 -4 17 C-4.96410559 18.0346499 -5.97236645 19.02841919 -7 20 C-8.09372939 21.54080126 -9.15531225 23.10481211 -10.1875 24.6875 C-10.98220703 25.89986328 -10.98220703 25.89986328 -11.79296875 27.13671875 C-12.19128906 27.75160156 -12.58960938 28.36648438 -13 29 C-14 27 -14 27 -13.5390625 25.1796875 C-5.88764045 5.88764045 -5.88764045 5.88764045 0 0 Z "
        transform="translate(297,413)" style="fill: #F3C257;" />
    <path
        d="M0 0 C2.96052484 3.36423277 3.92289822 6.69159287 5 11 C5.99 11 6.98 11 8 11 C9.125 16.75 9.125 16.75 8 19 C8.99 19.33 9.98 19.66 11 20 C10.01 21.32 9.02 22.64 8 24 C4.37 17.07 0.74 10.14 -3 3 C-2.01 2.01 -1.02 1.02 0 0 Z "
        transform="translate(717,672)" style="fill: #548C3E;" />
    <path
        d="M0 0 C1.9503428 2.92551421 2.5622914 4.76899153 3.375 8.125 C4.3333039 11.84087225 5.44864706 15.17511424 7.125 18.625 C9.24224156 23.09383428 9.68780673 27.08295602 10 32 C10.66 32 11.32 32 12 32 C12.99 35.3 13.98 38.6 15 42 C14.34 42 13.68 42 13 42 C7.03426587 30.02753013 -0.85424209 13.66787342 0 0 Z "
        transform="translate(547,419)" style="fill: #628828;" />
    <path
        d="M0 0 C2.625 -0.4375 2.625 -0.4375 6 0 C9.65658517 3.05135728 12.11321436 6.28438694 13 11 C10 10 10 10 8 8 C7.34 8 6.68 8 6 8 C6 8.66 6 9.32 6 10 C3.54896452 9.01958581 2.23241214 8.3486182 0.75 6.125 C0 4 0 4 0 0 Z "
        transform="translate(539,256)" style="fill: #438234;" />
    <path
        d="M0 0 C4.93436689 4.19421186 7.38325082 9.67832092 8 16 C8.66 16 9.32 16 10 16 C11.76171875 18.3359375 11.76171875 18.3359375 13.6875 21.375 C14.33074219 22.37273437 14.97398437 23.37046875 15.63671875 24.3984375 C16.08660156 25.25695312 16.53648437 26.11546875 17 27 C16.67 27.66 16.34 28.32 16 29 C11.86922517 26.08664262 9.85057139 23.42471605 7.6875 18.875 C7.17574219 17.82054687 6.66398438 16.76609375 6.13671875 15.6796875 C5 13 5 13 5 11 C4.01 11 3.02 11 2 11 C1.855625 10.113125 1.71125 9.22625 1.5625 8.3125 C1.08980022 5.52882354 0.56929815 2.76516243 0 0 Z "
        transform="translate(570,483)" style="fill: #DD921F;" />
    <path
        d="M0 0 C0.33 0.66 0.66 1.32 1 2 C-1.71679076 8.20271863 -5.72315612 15.68258228 -11 20 C-11.66 20 -12.32 20 -13 20 C-13.33 20.99 -13.66 21.98 -14 23 C-14.99 23.33 -15.98 23.66 -17 24 C-15.40404922 18.89295751 -12.27625132 15.12952561 -9 11 C-8.52691406 10.39027344 -8.05382812 9.78054688 -7.56640625 9.15234375 C-6.42949416 7.72529979 -5.22056709 6.35618566 -4 5 C-3.34 5 -2.68 5 -2 5 C-1.34 3.35 -0.68 1.7 0 0 Z "
        transform="translate(315,389)" style="fill: #F2C254;" />
    <path
        d="M0 0 C0.33 0 0.66 0 1 0 C4.53891073 12.38319525 5.51881771 23.72391835 5.25 36.5625 C5.22986217 38.26755665 5.21162454 39.97263683 5.1953125 41.67773438 C5.15198942 45.78575648 5.08338588 49.89260395 5 54 C4.67 54 4.34 54 4 54 C3.98541748 53.11441406 3.97083496 52.22882812 3.95581055 51.31640625 C3.81760848 29.98016123 3.81760848 29.98016123 0.62109375 8.9609375 C-0.02250045 5.89273371 -0.10794061 3.1255845 0 0 Z "
        transform="translate(277,628)" style="fill: #F5D179;" />
    <path
        d="M0 0 C2.85311995 2.85311995 2.89459958 6.09656612 3.5 9.9375 C3.7560351 11.4883598 4.01254559 13.03914118 4.26953125 14.58984375 C4.39279785 15.3463623 4.51606445 16.10288086 4.64306641 16.88232422 C5.10111675 19.5999225 5.64557016 22.29803775 6.1875 25 C7.06480187 29.73452991 7.15764949 34.1916904 7 39 C4.17022208 36.17022208 4.43893548 33.8175812 4 29.875 C3.30958199 23.84268047 3.30958199 23.84268047 1.9375 17.9375 C0.29757144 12.13964233 0.31937669 5.98411065 0 0 Z "
        transform="translate(270,586)" style="fill: #F1C561;" />
    <path
        d="M0 0 C0.33 0 0.66 0 1 0 C0.63176001 6.90767437 -0.23918163 12.6381142 -3 19 C-3.66 19 -4.32 19 -5 19 C-5.04898437 19.62648438 -5.09796875 20.25296875 -5.1484375 20.8984375 C-5.22320312 21.71570313 -5.29796875 22.53296875 -5.375 23.375 C-5.44460938 24.18710937 -5.51421875 24.99921875 -5.5859375 25.8359375 C-6 28 -6 28 -8 30 C-7.65191789 22.13334434 -5.721709 15.3586947 -3 8 C-2.69320313 7.16210938 -2.38640625 6.32421875 -2.0703125 5.4609375 C-1.39313297 3.63577744 -0.69883753 1.81697757 0 0 Z "
        transform="translate(279,450)" style="fill: #F0C256;" />
    <path
        d="M0 0 C1 2 1 2 0.61035156 3.78417969 C0.3728418 4.48961914 0.13533203 5.19505859 -0.109375 5.921875 C-0.36976563 6.70046875 -0.63015625 7.4790625 -0.8984375 8.28125 C-1.31996094 9.50328125 -1.31996094 9.50328125 -1.75 10.75 C-2.14832031 11.94882812 -2.14832031 11.94882812 -2.5546875 13.171875 C-4.06856967 17.64003209 -5.76621268 21.82846947 -8 26 C-8.33 26 -8.66 26 -9 26 C-8.3937803 21.11899394 -7.42764055 16.53640147 -6.0625 11.8125 C-5.72347656 10.62269531 -5.38445313 9.43289063 -5.03515625 8.20703125 C-4.19599115 5.60720277 -3.41616523 3.32695385 -2 1 C-1.34 0.67 -0.68 0.34 0 0 Z "
        transform="translate(616,600)" style="fill: #E99837;" />
    <path
        d="M0 0 C1.98 0.66 3.96 1.32 6 2 C5.125 8.75 5.125 8.75 4 11 C2.35 11 0.7 11 -1 11 C-2.0257259 6.58937864 -2.03684712 4.07369424 0 0 Z "
        transform="translate(518,235)" style="fill: #428129;" />
    <path
        d="M0 0 C0.33 0 0.66 0 1 0 C1.25394531 1.12277344 1.50789062 2.24554688 1.76953125 3.40234375 C3.91376303 12.98363447 3.91376303 12.98363447 6.75 22.375 C8 26 8 26 8 29 C7.34 29 6.68 29 6 29 C6 27.35 6 25.7 6 24 C5.01 23.67 4.02 23.34 3 23 C0.2829765 15.58688649 -0.47759236 7.83605243 0 0 Z "
        transform="translate(546,419)" style="fill: #E49120;" />
    <path
        d="M0 0 C0.66 0.66 1.32 1.32 2 2 C-0.79008824 3.9813993 -3.5823341 5.95973581 -6.375 7.9375 C-7.1690625 8.50146484 -7.963125 9.06542969 -8.78125 9.64648438 C-9.54179688 10.18466797 -10.30234375 10.72285156 -11.0859375 11.27734375 C-11.7876709 11.77484131 -12.4894043 12.27233887 -13.21240234 12.78491211 C-15 14 -15 14 -17 15 C-17.33 14.01 -17.66 13.02 -18 12 C-17.34 12 -16.68 12 -16 12 C-16 11.34 -16 10.68 -16 10 C-15.01 9.67 -14.02 9.34 -13 9 C-12.278125 8.236875 -11.55625 7.47375 -10.8125 6.6875 C-7.50132812 3.52349132 -4.14607216 1.84155562 0 0 Z "
        transform="translate(566,200)" style="fill: #705133;" />
    <path
        d="M0 0 C0.33 0.99 0.66 1.98 1 3 C-0.98 3.99 -0.98 3.99 -3 5 C-3 6.32 -3 7.64 -3 9 C-3.515625 9.103125 -4.03125 9.20625 -4.5625 9.3125 C-7.22142826 9.99617053 -7.22142826 9.99617053 -10.4375 11.5625 C-13.69863656 12.87839721 -15.56357041 13.31240269 -19 13 C-15.08359038 9.73507726 -10.98687305 6.96865608 -6.6875 4.25 C-5.71973633 3.63318359 -5.71973633 3.63318359 -4.73242188 3.00390625 C-3.15658043 2.00003689 -1.57851733 0.99965644 0 0 Z "
        transform="translate(480,229)" style="fill: #725433;" />
    <path
        d="M0 0 C0 1.65 0 3.3 0 5 C-0.66 5 -1.32 5 -2 5 C-2 5.66 -2 6.32 -2 7 C-3.98 7.99 -3.98 7.99 -6 9 C-6 9.66 -6 10.32 -6 11 C-6.99 11 -7.98 11 -9 11 C-9 11.66 -9 12.32 -9 13 C-10.98 13.99 -12.96 14.98 -15 16 C-15.66 15.34 -16.32 14.68 -17 14 C-16.01257813 13.15695313 -15.02515625 12.31390625 -14.0078125 11.4453125 C-12.71350438 10.33858527 -11.41923559 9.23181204 -10.125 8.125 C-9.47402344 7.56941406 -8.82304688 7.01382813 -8.15234375 6.44140625 C-7.52714844 5.90644531 -6.90195312 5.37148437 -6.2578125 4.8203125 C-5.6817627 4.32805176 -5.10571289 3.83579102 -4.51220703 3.32861328 C-0.72363102 0 -0.72363102 0 0 0 Z "
        transform="translate(556,170)" style="fill: #74532E;" />
    <path
        d="M0 0 C3.18748029 -0.02932572 6.37492528 -0.04690739 9.5625 -0.0625 C10.90538086 -0.07506836 10.90538086 -0.07506836 12.27539062 -0.08789062 C17.29997943 -0.10629571 22.04817291 0.13733602 27 1 C24.01452403 3.60114766 22.29115184 4.37041004 18.33984375 4.1796875 C17.46392578 4.1384375 16.58800781 4.0971875 15.68554688 4.0546875 C14.77869141 3.99539063 13.87183594 3.93609375 12.9375 3.875 C11.57141602 3.82085937 11.57141602 3.82085937 10.17773438 3.765625 C3.45063493 3.38886777 3.45063493 3.38886777 1.21704102 1.46142578 C0.81541748 0.97915527 0.41379395 0.49688477 0 0 Z "
        transform="translate(461,330)" style="fill: #EF982B;" />
    <path
        d="M0 0 C1.32 0.66 2.64 1.32 4 2 C0.37924984 6.97853147 -4.41915339 12.2095767 -10 15 C-9.38223347 10.98451758 -7.43157874 8.1957892 -5 5 C-2.8125 3.8125 -2.8125 3.8125 -1 3 C-0.67 2.01 -0.34 1.02 0 0 Z "
        transform="translate(560,160)" style="fill: #F3EFE6;" />
    <path
        d="M0 0 C0 0.33 0 0.66 0 1 C-3.34898861 1.87539079 -6.70475242 2.72138981 -10.0625 3.5625 C-11.47692383 3.9327832 -11.47692383 3.9327832 -12.91992188 4.31054688 C-18.3721516 5.65935632 -22.50356984 6.27309825 -28 5 C-24.31570462 2.81601047 -20.40672134 2.13217229 -16.25 1.375 C-15.57195312 1.2409375 -14.89390625 1.106875 -14.1953125 0.96875 C-9.39550455 0.0744892 -4.88103792 -0.12038434 0 0 Z "
        transform="translate(394,827)" style="fill: #E79C3F;" />
    <path
        d="M0 0 C0.99 0.66 1.98 1.32 3 2 C1.43910974 3.41844009 -0.1237889 4.83467025 -1.6875 6.25 C-2.55761719 7.03890625 -3.42773438 7.8278125 -4.32421875 8.640625 C-11.53642384 15 -11.53642384 15 -14 15 C-14 15.66 -14 16.32 -14 17 C-14.66 16.67 -15.32 16.34 -16 16 C-16 15.01 -16 14.02 -16 13 C-15.34 13 -14.68 13 -14 13 C-13.67 12.34 -13.34 11.68 -13 11 C-12.01 11 -11.02 11 -10 11 C-10 10.34 -10 9.68 -10 9 C-9.34 9 -8.68 9 -8 9 C-8 8.34 -8 7.68 -8 7 C-5.47107279 4.26602464 -3.10404867 2.06936578 0 0 Z "
        transform="translate(512,753)" style="fill: #E99734;" />
    <path
        d="M0 0 C0.66 1.32 1.32 2.64 2 4 C1.236875 4.556875 0.47375 5.11375 -0.3125 5.6875 C-2.99319123 7.99414129 -4.28249547 9.95533288 -6 13 C-6.98095748 14.01868662 -7.97702078 15.02351983 -9 16 C-9.33 16.66 -9.66 17.32 -10 18 C-10.66 18 -11.32 18 -12 18 C-12 18.99 -12 19.98 -12 21 C-12.99 21 -13.98 21 -15 21 C-13.60917658 18.00708885 -11.97717635 15.49987528 -9.9609375 12.890625 C-9.38085938 12.13652344 -8.80078125 11.38242187 -8.203125 10.60546875 C-7.59984375 9.82816406 -6.9965625 9.05085937 -6.375 8.25 C-5.76398437 7.45722656 -5.15296875 6.66445313 -4.5234375 5.84765625 C-3.01861835 3.89609392 -1.51072716 1.94699011 0 0 Z "
        transform="translate(571,690)" style="fill: #F5EED6;" />
    <path
        d="M0 0 C6.80135298 6.62237001 6.80135298 6.62237001 7.30078125 10.0859375 C7.3251498 14.84592856 7.20165714 18.18263957 4 22 C3.34 22 2.68 22 2 22 C2.875 18.125 2.875 18.125 4 17 C4.07205511 15.31391034 4.08386068 13.62499341 4.0625 11.9375 C4.04896484 10.55884766 4.04896484 10.55884766 4.03515625 9.15234375 C4.02355469 8.44207031 4.01195312 7.73179687 4 7 C3.34 7 2.68 7 2 7 C0.5393715 4.35261084 0 3.10551666 0 0 Z "
        transform="translate(586,164)" style="fill: #7B5D44;" />
    <path
        d="M0 0 C0.66 0 1.32 0 2 0 C1.42911651 4.24712225 0.41322719 7.77122128 -1.3125 11.6875 C-3.76619223 17.38662817 -5.93832802 23.14899795 -8 29 C-9.19309111 25.55559783 -8.80482315 23.62372653 -7.56640625 20.234375 C-7.0878418 18.90019531 -7.0878418 18.90019531 -6.59960938 17.5390625 C-6.08624023 16.15847656 -6.08624023 16.15847656 -5.5625 14.75 C-5.22412109 13.81414062 -4.88574219 12.87828125 -4.53710938 11.9140625 C-3.70092178 9.60571366 -2.85495944 7.30144809 -2 5 C-1.34 5 -0.68 5 0 5 C0 3.35 0 1.7 0 0 Z "
        transform="translate(283,434)" style="fill: #F7F6CF;" />
    <path
        d="M0 0 C0.99 0.33 1.98 0.66 3 1 C2.67 2.65 2.34 4.3 2 6 C2.78375 6.0825 3.5675 6.165 4.375 6.25 C7 7 7 7 8.3125 9.0625 C8.539375 9.701875 8.76625 10.34125 9 11 C1.375 10.125 1.375 10.125 -2 9 C-1.34 6.03 -0.68 3.06 0 0 Z "
        transform="translate(490,323)" style="fill: #855A29;" />
    <path
        d="M0 0 C0.04254356 1.99954746 0.04080783 4.00041636 0 6 C-1.73605513 7.73605513 -4.20549496 7.65611982 -6.5625 8.0625 C-7.57441406 8.23910156 -8.58632813 8.41570312 -9.62890625 8.59765625 C-10.41136719 8.73042969 -11.19382812 8.86320312 -12 9 C-12.33 8.34 -12.66 7.68 -13 7 C-11.02237345 5.83072457 -9.04285742 4.66464427 -7.0625 3.5 C-5.40927734 2.52546875 -5.40927734 2.52546875 -3.72265625 1.53125 C-1 0 -1 0 0 0 Z "
        transform="translate(451,248)" style="fill: #74512F;" />
    <path
        d="M0 0 C2.31 0.66 4.62 1.32 7 2 C5.94124926 5.40312738 4.99097846 8.01353231 3 11 C2.34 11 1.68 11 1 11 C0.63890458 9.35567294 0.28629924 7.7094792 -0.0625 6.0625 C-0.25972656 5.14597656 -0.45695313 4.22945312 -0.66015625 3.28515625 C-0.77230469 2.53105469 -0.88445313 1.77695312 -1 1 C-0.67 0.67 -0.34 0.34 0 0 Z "
        transform="translate(742,739)" style="fill: #539041;" />
    <path
        d="M0 0 C0.66 0 1.32 0 2 0 C-2.19148936 19.53191489 -2.19148936 19.53191489 -5 28 C-5.33 28 -5.66 28 -6 28 C-6.14262816 24.93349461 -6.22590307 22.55722757 -5.0625 19.6875 C-4.05637184 17.1425876 -3.78371214 15.37891433 -3.5625 12.6875 C-3.14138193 8.03960431 -1.79630098 4.29550234 0 0 Z "
        transform="translate(623,571)" style="fill: #E5993A;" />
    <path
        d="M0 0 C2.89705376 0.61972282 5.79255455 1.24556699 8.6875 1.875 C9.91243164 2.13603516 9.91243164 2.13603516 11.16210938 2.40234375 C15.27820831 3.30221963 19.14072444 4.25507296 23 6 C19.34606463 7.26823485 16.50929974 6.75715321 12.75 6.0625 C11.67234375 5.86785156 10.5946875 5.67320312 9.484375 5.47265625 C8.25460937 5.23869141 8.25460937 5.23869141 7 5 C7 4.34 7 3.68 7 3 C4.69 2.67 2.38 2.34 0 2 C0 1.34 0 0.68 0 0 Z "
        transform="translate(498,334)" style="fill: #E9962D;" />
    <path
        d="M0 0 C0.33 0 0.66 0 1 0 C0.48462048 7.13393752 -0.44005901 14.01812817 -2 21 C-2.33 21 -2.66 21 -3 21 C-4.38102423 13.0299927 -3.6149746 7.22994921 0 0 Z "
        transform="translate(493,302)" style="fill: #EAEAE0;" />
    <path
        d="M0 0 C-1.76755526 0.84026396 -3.53917263 1.67198722 -5.3125 2.5 C-6.29863281 2.9640625 -7.28476562 3.428125 -8.30078125 3.90625 C-11 5 -11 5 -14 5 C-14 5.66 -14 6.32 -14 7 C-17.63 7 -21.26 7 -25 7 C-20.91241625 4.27494416 -16.61868736 3.20668685 -11.9375 1.8125 C-11.01388672 1.52697266 -10.09027344 1.24144531 -9.13867188 0.94726562 C-8.25630859 0.68236328 -7.37394531 0.41746094 -6.46484375 0.14453125 C-5.656521 -0.09934326 -4.84819824 -0.34321777 -4.01538086 -0.59448242 C-2 -1 -2 -1 0 0 Z "
        transform="translate(408,824)" style="fill: #F9EDC9;" />
    <path
        d="M0 0 C2 1 2 1 3 3 C2.34 3 1.68 3 1 3 C1 3.66 1 4.32 1 5 C0.34 5 -0.32 5 -1 5 C-1 5.66 -1 6.32 -1 7 C-1.969375 7.28875 -2.93875 7.5775 -3.9375 7.875 C-7.10664203 8.64214682 -7.10664203 8.64214682 -8 11 C-8 10.34 -8 9.68 -8 9 C-8.66 8.67 -9.32 8.34 -10 8 C-6.7 5.36 -3.4 2.72 0 0 Z "
        transform="translate(514,204)" style="fill: #775834;" />
    <path
        d="M0 0 C0 3 0 3 -1.578125 4.859375 C-4.53265915 7.47080196 -7.60576637 9.87282117 -10.75 12.25 C-11.65298828 12.93835938 -11.65298828 12.93835938 -12.57421875 13.640625 C-14.04744906 14.76308619 -15.52344544 15.88191534 -17 17 C-17.66 16.67 -18.32 16.34 -19 16 C-13.25 11 -13.25 11 -11 11 C-11 10.34 -11 9.68 -11 9 C-10.34 9 -9.68 9 -9 9 C-9 8.34 -9 7.68 -9 7 C-7.03125 5.2734375 -7.03125 5.2734375 -4.5 3.375 C-3.6646875 2.74335937 -2.829375 2.11171875 -1.96875 1.4609375 C-1.3190625 0.97882812 -0.669375 0.49671875 0 0 Z "
        transform="translate(499,725)" style="fill: #F5971A;" />
    <path
        d="M0 0 C-1.64411935 1.81718454 -3.12175539 3.07102398 -5.25 4.3125 C-8.83546375 6.51267094 -11.86522591 9.20851529 -15 12 C-15.33 11.01 -15.66 10.02 -16 9 C-12.25 6 -12.25 6 -10 6 C-9.979375 5.401875 -9.95875 4.80375 -9.9375 4.1875 C-9 2 -9 2 -5.5625 0.1875 C-2 -1 -2 -1 0 0 Z "
        transform="translate(346,363)" style="fill: #FBF6D1;" />
    <path
        d="M0 0 C0.99 0.495 0.99 0.495 2 1 C2 2.32 2 3.64 2 5 C2.66 5 3.32 5 4 5 C5.7265625 7.1875 5.7265625 7.1875 7.625 10 C8.25664063 10.928125 8.88828125 11.85625 9.5390625 12.8125 C10.26222656 13.8953125 10.26222656 13.8953125 11 15 C10.67 15.66 10.34 16.32 10 17 C9.34 17 8.68 17 8 17 C5.70351351 14.4385343 5 13.52032428 5 10 C4.34 10 3.68 10 3 10 C2.67 8.68 2.34 7.36 2 6 C1.34 6 0.68 6 0 6 C0 4.02 0 2.04 0 0 Z "
        transform="translate(587,512)" style="fill: #DC911E;" />
    <path
        d="M0 0 C4.01303508 1.556846 7.9092928 3.31138857 11.8125 5.125 C12.97394531 5.66382813 14.13539063 6.20265625 15.33203125 6.7578125 C16.21246094 7.16773438 17.09289062 7.57765625 18 8 C18 9.65 18 11.3 18 13 C17.67 11.68 17.34 10.36 17 9 C15.63875 8.7834375 15.63875 8.7834375 14.25 8.5625 C8.92 7.64 8.92 7.64 7 7 C6.67 6.34 6.34 5.68 6 5 C5.175 4.690625 4.35 4.38125 3.5 4.0625 C2.675 3.711875 1.85 3.36125 1 3 C0.67 2.01 0.34 1.02 0 0 Z "
        transform="translate(523,341)" style="fill: #E69632;" />
    <path
        d="M0 0 C3.19805884 4.79708827 3.31690548 9.29570132 3 15 C2.01 16.485 2.01 16.485 1 18 C-2.52761227 12.70858159 -1.17902151 5.89510757 0 0 Z "
        transform="translate(547,302)" style="fill: #578F42;" />
    <path
        d="M0 0 C-1.67517239 3.53647504 -2.49280817 4.7911563 -6.1875 6.3125 C-7.5796875 6.6528125 -7.5796875 6.6528125 -9 7 C-8.67 8.32 -8.34 9.64 -8 11 C-8.99 10.67 -9.98 10.34 -11 10 C-11.375 7.8125 -11.375 7.8125 -11 5 C-7.52220203 1.36044399 -5.15214209 -0.75766795 0 0 Z "
        transform="translate(509,213)" style="fill: #6D481E;" />
    <path
        d="M0 0 C-3.16063087 2.60332156 -6.3431652 4.14038576 -10.125 5.6875 C-11.70667969 6.34298828 -11.70667969 6.34298828 -13.3203125 7.01171875 C-16 8 -16 8 -18 8 C-18 7.01 -18 6.02 -18 5 C-15.94175571 4.15621025 -13.87820214 3.32536378 -11.8125 2.5 C-10.66394531 2.0359375 -9.51539063 1.571875 -8.33203125 1.09375 C-5.28009923 0.09194348 -3.16884928 -0.23870804 0 0 Z "
        transform="translate(432,812)" style="fill: #EA9734;" />
    <path
        d="M0 0 C0.99 0 1.98 0 3 0 C5.1549389 2.38582521 6.69424348 5.06882042 8 8 C7.8125 11 7.8125 11 7 13 C6.34 13 5.68 13 5 13 C3.35 8.71 1.7 4.42 0 0 Z "
        transform="translate(726,697)" style="fill: #4F873B;" />
    <path
        d="M0 0 C6.0546875 -0.1953125 6.0546875 -0.1953125 8 0 C8.66 0.66 9.32 1.32 10 2 C10.969375 2 11.93875 2 12.9375 2 C16 2 16 2 19 4 C19.6875 6.125 19.6875 6.125 20 8 C19.33613281 7.72414063 18.67226563 7.44828125 17.98828125 7.1640625 C14.42744445 5.77696529 10.81608323 4.56948099 7.1875 3.375 C6.14819336 3.03082031 6.14819336 3.03082031 5.08789062 2.6796875 C3.39238197 2.11841567 1.69625347 1.55901687 0 1 C0 0.67 0 0.34 0 0 Z "
        transform="translate(512,337)" style="fill: #F8EBCD;" />
    <path
        d="M0 0 C0.66 0.33 1.32 0.66 2 1 C0.71034824 2.37562854 -0.62689293 3.70766393 -2 5 C-2.66 5 -3.32 5 -4 5 C-3.67 5.99 -3.34 6.98 -3 8 C-7.0188515 9.81242323 -10.61110675 11.33501617 -15 12 C-11.99764638 8.82608332 -8.80246358 6.28747399 -5.25 3.75 C-4.26515625 3.04359375 -3.2803125 2.3371875 -2.265625 1.609375 C-1.51796875 1.07828125 -0.7703125 0.5471875 0 0 Z "
        transform="translate(502,213)" style="fill: #745434;" />
    <path
        d="M0 0 C0.99 0.33 1.98 0.66 3 1 C-0.56320845 6.09210286 -4.04741286 10.22660027 -9 14 C-9 10 -9 10 -7.5625 8.375 C-7.046875 7.92125 -6.53125 7.4675 -6 7 C-5.67 6.34 -5.34 5.68 -5 5 C-4.01 5 -3.02 5 -2 5 C-2 4.01 -2 3.02 -2 2 C-1.34 2 -0.68 2 0 2 C0 1.34 0 0.68 0 0 Z "
        transform="translate(545,719)" style="fill: #E8963C;" />
    <path
        d="M0 0 C0.66 0.33 1.32 0.66 2 1 C1.29875 1.680625 0.5975 2.36125 -0.125 3.0625 C-3.27934337 6.20780513 -6.13934304 9.5888386 -9 13 C-9.99 12.34 -10.98 11.68 -12 11 C-10.37807179 9.35113941 -8.75236228 7.7059976 -7.125 6.0625 C-6.22007812 5.14597656 -5.31515625 4.22945312 -4.3828125 3.28515625 C-2 1 -2 1 0 0 Z "
        transform="translate(525,745)" style="fill: #F5F1E3;" />
    <path
        d="M0 0 C1.64177401 3.28354802 0.26642648 6.65628996 -0.4375 10.125 C-0.58509766 10.87910156 -0.73269531 11.63320313 -0.88476562 12.41015625 C-1.25057648 14.27461157 -1.62452356 16.13746714 -2 18 C-4.45479601 14.29032692 -3.95976632 11.59507649 -3.25 7.3125 C-3.06953125 6.15363281 -2.8890625 4.99476563 -2.703125 3.80078125 C-2.47109375 2.87652344 -2.2390625 1.95226562 -2 1 C-1.34 0.67 -0.68 0.34 0 0 Z "
        transform="translate(774,654)" style="fill: #538B3F;" />
    <path
        d="M0 0 C3.59634744 3.49359465 6.83451967 7.11098131 10 11 C7.125 11.125 7.125 11.125 4 11 C1.6870518 8.6870518 1.50419025 7.52095125 0.875 4.375 C0.70742188 3.55773437 0.53984375 2.74046875 0.3671875 1.8984375 C0.24601563 1.27195312 0.12484375 0.64546875 0 0 Z "
        transform="translate(646,587)" style="fill: #E4EEDD;" />
    <path
        d="M0 0 C-0.66 1.32 -1.32 2.64 -2 4 C-2.33 3.67 -2.66 3.34 -3 3 C-3.66 4.32 -4.32 5.64 -5 7 C-7.97 7 -10.94 7 -14 7 C-10.33997803 3.94998169 -4.92148529 0 0 0 Z "
        transform="translate(442,280)" style="fill: #EAE7E0;" />
    <path
        d="M0 0 C1.32 1.32 2.64 2.64 4 4 C3.34 4.66 2.68 5.32 2 6 C0 2.25 0 2.25 0 0 Z M-3 1 C-1.35 2.65 0.3 4.3 2 6 C1.01 6.33 0.02 6.66 -1 7 C-1.66 7.66 -2.32 8.32 -3 9 C-3.99 7.68 -4.98 6.36 -6 5 C-5.67 4.34 -5.34 3.68 -5 3 C-4.34 3 -3.68 3 -3 3 C-3 2.34 -3 1.68 -3 1 Z "
        transform="translate(550,261)" style="fill: #569344;" />
    <path
        d="M0 0 C0.99 0.33 1.98 0.66 3 1 C-0.63 6.28 -4.26 11.56 -8 17 C-8.33 15.68 -8.66 14.36 -9 13 C-8.01 12.67 -7.02 12.34 -6 12 C-5.39938767 10.09821215 -5.39938767 10.09821215 -5 8 C-4.34 7.01 -3.68 6.02 -3 5 C-2.34 5 -1.68 5 -1 5 C-0.67 3.35 -0.34 1.7 0 0 Z "
        transform="translate(575,680)" style="fill: #E39A41;" />
    <path
        d="M0 0 C0.82973374 2.38213881 1.10314333 3.65893095 0.36328125 6.10546875 C0.01652344 6.79253906 -0.33023437 7.47960937 -0.6875 8.1875 C-1.18830078 9.22970703 -1.18830078 9.22970703 -1.69921875 10.29296875 C-3.30835927 12.40466367 -4.42201159 12.63636795 -7 13 C-5.35821735 8.22390502 -2.73453298 4.20617096 0 0 Z "
        transform="translate(297,413)" style="fill: #F1C969;" />
    <path
        d="M0 0 C0.99 0.33 1.98 0.66 3 1 C5.3406065 0.72230092 7.67624308 0.39460023 10 0 C10 0.66 10 1.32 10 2 C6.7 3.32 3.4 4.64 0 6 C-0.66 4.68 -1.32 3.36 -2 2 C-1.34 2 -0.68 2 0 2 C0 1.34 0 0.68 0 0 Z "
        transform="translate(445,272)" style="fill: #795433;" />
    <path
        d="M0 0 C2.64 0 5.28 0 8 0 C8 0.66 8 1.32 8 2 C8.66 2 9.32 2 10 2 C10 3.98 10 5.96 10 8 C6.25718301 5.61820737 3.02272532 3.25524265 0 0 Z "
        transform="translate(523,249)" style="fill: #599242;" />
    <path
        d="M0 0 C0.66 1.32 1.32 2.64 2 4 C-3.94 7.96 -3.94 7.96 -10 12 C-10.33 10.68 -10.66 9.36 -11 8 C-9.35 7.67 -7.7 7.34 -6 7 C-6 6.34 -6 5.68 -6 5 C-4.35 4.67 -2.7 4.34 -1 4 C-0.67 2.68 -0.34 1.36 0 0 Z "
        transform="translate(579,189)" style="fill: #765737;" />
    <path
        d="M0 0 C3.63 0.33 7.26 0.66 11 1 C11 1.66 11 2.32 11 3 C12.175625 3.185625 12.175625 3.185625 13.375 3.375 C16 4 16 4 18 6 C13.68068613 5.38388165 9.74791225 4.35761422 5.625 2.9375 C4.56539063 2.57527344 3.50578125 2.21304688 2.4140625 1.83984375 C1.61742187 1.56269531 0.82078125 1.28554688 0 1 C0 0.67 0 0.34 0 0 Z "
        transform="translate(308,827)" style="fill: #E59B3B;" />
    <path
        d="M0 0 C2.11730212 3.48732114 2.11730212 3.48732114 1.57836914 5.84277344 C1.38750732 6.5546582 1.19664551 7.26654297 1 8 C0.8578299 9.58567839 0.75495959 11.17518632 0.68359375 12.765625 C0.64169922 13.65507813 0.59980469 14.54453125 0.55664062 15.4609375 C0.51732422 16.38132812 0.47800781 17.30171875 0.4375 18.25 C0.39431641 19.18585937 0.35113281 20.12171875 0.30664062 21.0859375 C0.2008195 23.39048641 0.09873443 25.69513839 0 28 C-0.33 28 -0.66 28 -1 28 C-1.02912348 24.27084983 -1.04684037 20.5417291 -1.0625 16.8125 C-1.07087891 15.75740234 -1.07925781 14.70230469 -1.08789062 13.61523438 C-1.09111328 12.59365234 -1.09433594 11.57207031 -1.09765625 10.51953125 C-1.10289307 9.58214111 -1.10812988 8.64475098 -1.11352539 7.67895508 C-1.00082657 5.01950523 -0.59376649 2.59079427 0 0 Z "
        transform="translate(268,741)" style="fill: #F3BB4C;" />
    <path
        d="M0 0 C0.70703125 1.64453125 0.70703125 1.64453125 1 4 C-0.36328125 6.76171875 -0.36328125 6.76171875 -2.3125 9.6875 C-2.94800781 10.66074219 -3.58351563 11.63398437 -4.23828125 12.63671875 C-6 15 -6 15 -8 16 C-7.125 11.25 -7.125 11.25 -6 9 C-5.34 9 -4.68 9 -4 9 C-3.34 7.02 -2.68 5.04 -2 3 C-1.34 3 -0.68 3 0 3 C0 2.01 0 1.02 0 0 Z "
        transform="translate(585,664)" style="fill: #EB8F2C;" />
    <path
        d="M0 0 C1.46033351 4.38100054 0.77390839 8.22456309 -1.0625 12.4375 C-1.371875 12.953125 -1.68125 13.46875 -2 14 C-1.34 14.33 -0.68 14.66 0 15 C-0.680625 15.61875 -0.680625 15.61875 -1.375 16.25 C-3.05950374 18.06408095 -3.99265971 19.75285627 -5 22 C-6.39244995 19.21510011 -5.60011193 17.90039011 -4.75 14.9375 C-4.47027344 13.96039062 -4.19054687 12.98328125 -3.90234375 11.9765625 C-2.68331632 7.95535514 -1.38151218 3.96817329 0 0 Z "
        transform="translate(575,602)" style="fill: #F69B1D;" />
    <path
        d="M0 0 C1.32031595 0.56542004 2.6311301 1.15306472 3.9375 1.75 C4.66839844 2.07484375 5.39929688 2.3996875 6.15234375 2.734375 C8 4 8 4 8.75390625 6.140625 C8.87572266 7.06101562 8.87572266 7.06101562 9 8 C9.66 8 10.32 8 11 8 C11 8.66 11 9.32 11 10 C7.56001929 8.79135813 5.50075729 7.61442808 3 5 C2.01 4.67 1.02 4.34 0 4 C0 2.68 0 1.36 0 0 Z "
        transform="translate(290,813)" style="fill: #E89C3B;" />
    <path
        d="M0 0 C0.33 0 0.66 0 1 0 C1 5.28 1 10.56 1 16 C0.34 16 -0.32 16 -1 16 C-1 17.65 -1 19.3 -1 21 C-1.33 21 -1.66 21 -2 21 C-2.24091535 13.7725395 -1.34495828 7.09705662 0 0 Z "
        transform="translate(268,490)" style="fill: #F0C65E;" />
    <path
        d="M0 0 C-0.625 2.375 -0.625 2.375 -2 5 C-4.9375 6.4375 -4.9375 6.4375 -8 7 C-8.99 6.34 -9.98 5.68 -11 5 C-9.54462432 4.16151196 -8.08559627 3.32936066 -6.625 2.5 C-5.40683594 1.80390625 -5.40683594 1.80390625 -4.1640625 1.09375 C-2 0 -2 0 0 0 Z "
        transform="translate(454,801)" style="fill: #F6EDCF;" />
    <path
        d="M0 0 C1.65 0 3.3 0 5 0 C0.57557408 3.71080883 -4.17403931 6.84577733 -9 10 C-9.33 9.34 -9.66 8.68 -10 8 C-9.34 8 -8.68 8 -8 8 C-8 7.34 -8 6.68 -8 6 C-3.64705882 2 -3.64705882 2 0 2 C0 1.34 0 0.68 0 0 Z "
        transform="translate(472,785)" style="fill: #E2993F;" />
    <path
        d="M0 0 C0.99 0.33 1.98 0.66 3 1 C-0.3 4.3 -3.6 7.6 -7 11 C-8 8 -8 8 -7 6 C-6.34 6 -5.68 6 -5 6 C-5 5.34 -5 4.68 -5 4 C-2.6875 1.8125 -2.6875 1.8125 0 0 Z "
        transform="translate(533,733)" style="fill: #E59234;" />
    <path
        d="M0 0 C0.99 0.33 1.98 0.66 3 1 C2.67 3.97 2.34 6.94 2 10 C1.67 9.01 1.34 8.02 1 7 C-1.01508358 6.26676204 -1.01508358 6.26676204 -3 6 C-2.01 4.02 -1.02 2.04 0 0 Z "
        transform="translate(507,323)" style="fill: #76562F;" />
    <path
        d="M0 0 C0 2.31 0 4.62 0 7 C-0.99 7.33 -1.98 7.66 -3 8 C-3.73323796 10.01508358 -3.73323796 10.01508358 -4 12 C-4 9.69 -4 7.38 -4 5 C-4.66 4.67 -5.32 4.34 -6 4 C-1.125 0 -1.125 0 0 0 Z "
        transform="translate(775,647)" style="fill: #468431;" />
    <path
        d="M0 0 C0.33 0.66 0.66 1.32 1 2 C1.66 2 2.32 2 3 2 C3 7.28 3 12.56 3 18 C2.67 18 2.34 18 2 18 C1.6603981 16.12612523 1.32861309 14.25083303 1 12.375 C0.7215625 10.80878906 0.7215625 10.80878906 0.4375 9.2109375 C0.01284203 6.09425135 -0.07545206 3.14069188 0 0 Z "
        transform="translate(267,568)" style="fill: #EFC35E;" />
    <path
        d="M0 0 C3.375 4.5 3.375 4.5 3.07421875 8.984375 C3.01943359 9.91894531 2.96464844 10.85351562 2.90820312 11.81640625 C2.83537109 12.78449219 2.76253906 13.75257813 2.6875 14.75 C2.62626953 15.73355469 2.56503906 16.71710937 2.50195312 17.73046875 C2.34895151 20.15495584 2.18114966 22.57748027 2 25 C1.67 25 1.34 25 1 25 C0.67 16.75 0.34 8.5 0 0 Z "
        transform="translate(577,558)" style="fill: #F69A1D;" />
    <path
        d="M0 0 C0.66 0 1.32 0 2 0 C2.66 2.31 3.32 4.62 4 7 C4.66 7 5.32 7 6 7 C9.125 13.625 9.125 13.625 8 17 C8 16.34 8 15.68 8 15 C7.34 15 6.68 15 6 15 C3.74138003 10.06612142 1.59890486 5.19644079 0 0 Z "
        transform="translate(572,484)" style="fill: #678427;" />
    <path
        d="M0 0 C2.31 0 4.62 0 7 0 C7.625 2.375 7.625 2.375 8 5 C7.34 5.66 6.68 6.32 6 7 C3.95880212 5.38405168 1.95927063 3.7143618 0 2 C0 1.34 0 0.68 0 0 Z "
        transform="translate(465,332)" style="fill: #F49319;" />
    <path
        d="M0 0 C0.66 0.33 1.32 0.66 2 1 C0.625 3.5 0.625 3.5 -1 6 C-1.66 6 -2.32 6 -3 6 C-3.268125 6.61875 -3.53625 7.2375 -3.8125 7.875 C-5 10 -5 10 -8 12 C-7.62403791 9.21788056 -7.32681541 7.4120716 -5.5625 5.1875 C-4 4 -4 4 -2 4 C-1.34 2.68 -0.68 1.36 0 0 Z "
        transform="translate(555,708)" style="fill: #E89130;" />
    <path
        d="M0 0 C3.16115776 1.36983503 3.9927092 1.9890638 6 5 C3.69 5.66 1.38 6.32 -1 7 C-0.67 4.69 -0.34 2.38 0 0 Z "
        transform="translate(626,566)" style="fill: #EFEAD4;" />
    <path
        d="M0 0 C2.31242092 2.16323247 4.0156396 4.37647804 5.6875 7.0625 C6.12449219 7.75472656 6.56148437 8.44695312 7.01171875 9.16015625 C8 11 8 11 8 13 C7.01 12.67 6.02 12.34 5 12 C5 11.34 5 10.68 5 10 C4.360625 9.608125 3.72125 9.21625 3.0625 8.8125 C0.11050849 6.21832565 0.28669109 3.7986569 0 0 Z "
        transform="translate(714,370)" style="fill: #5D924E;" />
    <path
        d="M0 0 C-1.3809002 3.33717549 -2.8201238 5.22301036 -6 7 C-8.1328125 6.57421875 -8.1328125 6.57421875 -10 6 C-8.71283353 4.99421411 -7.42011342 3.99553202 -6.125 3 C-5.40570313 2.443125 -4.68640625 1.88625 -3.9453125 1.3125 C-2 0 -2 0 0 0 Z "
        transform="translate(354,358)" style="fill: #F2C65F;" />
    <path
        d="M0 0 C-2.46115371 2.27183419 -3.73620199 2.9736202 -7.125 3.3125 C-10 3 -10 3 -12 1 C-3.96428571 -1.27678571 -3.96428571 -1.27678571 0 0 Z "
        transform="translate(430,285)" style="fill: #836541;" />
    <path
        d="M0 0 C0.99 0 1.98 0 3 0 C3 2 3 2 1.3203125 3.69140625 C0.59585938 4.30886719 -0.12859375 4.92632813 -0.875 5.5625 C-1.59429688 6.18253906 -2.31359375 6.80257812 -3.0546875 7.44140625 C-5 9 -5 9 -7 10 C-7 8.68 -7 7.36 -7 6 C-2.77777778 2 -2.77777778 2 0 2 C0 1.34 0 0.68 0 0 Z "
        transform="translate(522,744)" style="fill: #E59840;" />
    <path
        d="M0 0 C1.99978169 6.90001011 0.12960113 12.44344276 -3.16015625 18.53125 C-3.43730469 19.0159375 -3.71445312 19.500625 -4 20 C-4.97812873 16.94371936 -5.00835683 15.14722553 -4.00390625 12.109375 C-3.77509766 11.40039062 -3.54628906 10.69140625 -3.31054688 9.9609375 C-3.06369141 9.23132813 -2.81683594 8.50171875 -2.5625 7.75 C-2.19801758 6.63238281 -2.19801758 6.63238281 -1.82617188 5.4921875 C-1.22667019 3.65841765 -0.61455513 1.82877996 0 0 Z "
        transform="translate(276,712)" style="fill: #F2CC70;" />
    <path
        d="M0 0 C3.29078593 2.79716804 5.06305458 6.19528578 7 10 C6.67 10.66 6.34 11.32 6 12 C4.68 11.67 3.36 11.34 2 11 C1.855625 10.113125 1.71125 9.22625 1.5625 8.3125 C1.08980022 5.52882354 0.56929815 2.76516243 0 0 Z "
        transform="translate(570,483)" style="fill: #CA8C1C;" />
    <path
        d="M0 0 C-1.46818668 3.10742423 -3.20025 5.90471739 -5.125 8.75 C-5.93324219 9.94882812 -5.93324219 9.94882812 -6.7578125 11.171875 C-7.16773438 11.77515625 -7.57765625 12.3784375 -8 13 C-8.66 12.01 -9.32 11.02 -10 10 C-9.01 9.67 -8.02 9.34 -7 9 C-6.26676204 6.98491642 -6.26676204 6.98491642 -6 5 C-5.34 5 -4.68 5 -4 5 C-3.855625 4.360625 -3.71125 3.72125 -3.5625 3.0625 C-2.72727273 0 -2.72727273 0 0 0 Z "
        transform="translate(306,400)" style="fill: #FBF9D7;" />
    <path
        d="M0 0 C6.09781001 -0.22084624 11.21642935 -0.01167675 17 2 C17 2.33 17 2.66 17 3 C10.9981863 3.21824777 5.80766296 2.5056904 0 1 C0 0.67 0 0.34 0 0 Z "
        transform="translate(481,332)" style="fill: #EE8E1C;" />
    <path
        d="M0 0 C0.66 0.66 1.32 1.32 2 2 C-0.97 3.98 -3.94 5.96 -7 8 C-7.33 7.34 -7.66 6.68 -8 6 C-8.66 5.67 -9.32 5.34 -10 5 C-9.01 5 -8.02 5 -7 5 C-7 4.34 -7 3.68 -7 3 C-3.535 2.505 -3.535 2.505 0 2 C0 1.34 0 0.68 0 0 Z "
        transform="translate(546,214)" style="fill: #76583D;" />
    <path
        d="M0 0 C0.66 0.33 1.32 0.66 2 1 C1.34 1.66 0.68 2.32 0 3 C0.33 3.99 0.66 4.98 1 6 C-0.65 6.66 -2.3 7.32 -4 8 C-4 7.34 -4 6.68 -4 6 C-4.99 5.67 -5.98 5.34 -7 5 C-4.69 3.35 -2.38 1.7 0 0 Z "
        transform="translate(583,190)" style="fill: #F0EEEA;" />
    <path
        d="M0 0 C1.53674273 2.99004241 2.90306293 6.01823885 4.1875 9.125 C4.55230469 9.99382813 4.91710937 10.86265625 5.29296875 11.7578125 C6 14 6 14 5 16 C4.360625 15.030625 3.72125 14.06125 3.0625 13.0625 C1.3034741 10.23963731 1.3034741 10.23963731 0 9 C-0.07179964 7.48071962 -0.08392007 5.95832518 -0.0625 4.4375 C-0.05347656 3.61121094 -0.04445313 2.78492188 -0.03515625 1.93359375 C-0.02355469 1.29550781 -0.01195312 0.65742187 0 0 Z "
        transform="translate(267,777)" style="fill: #F7EDBE;" />
    <path
        d="M0 0 C0.66 0 1.32 0 2 0 C0.36041242 5.23272633 -1.38952035 10.15196636 -4 15 C-4.33 13.68 -4.66 12.36 -5 11 C-4.34 11 -3.68 11 -3 11 C-3 9.02 -3 7.04 -3 5 C-2.34 4.67 -1.68 4.34 -1 4 C-0.34786708 1.97536745 -0.34786708 1.97536745 0 0 Z "
        transform="translate(605,626)" style="fill: #E6993F;" />
    <path
        d="M0 0 C2.65276917 0.38144393 3.81830943 0.81790113 5.73828125 2.7421875 C6.25777344 3.44601562 6.77726563 4.14984375 7.3125 4.875 C8.11107422 5.92300781 8.11107422 5.92300781 8.92578125 6.9921875 C9.28027344 7.65476562 9.63476562 8.31734375 10 9 C9.67 9.99 9.34 10.98 9 12 C7.49707257 10.18992669 5.99772829 8.37687764 4.5 6.5625 C3.6646875 5.55316406 2.829375 4.54382813 1.96875 3.50390625 C0 1 0 1 0 0 Z "
        transform="translate(617,552)" style="fill: #63862A;" />
    <path
        d="M0 0 C0.33 0.66 0.66 1.32 1 2 C-0.22997907 4.59662249 -1.2709275 6.75334329 -3 9 C-5.1875 9.75 -5.1875 9.75 -7 10 C-7.33 10.99 -7.66 11.98 -8 13 C-8.33 12.34 -8.66 11.68 -9 11 C-7.38405168 8.95880212 -5.7143618 6.95927063 -4 5 C-3.34 5 -2.68 5 -2 5 C-1.34 3.35 -0.68 1.7 0 0 Z "
        transform="translate(315,389)" style="fill: #F1CB66;" />
    <path
        d="M0 0 C0.99 0.33 1.98 0.66 3 1 C3.33333333 2.33333333 3.66666667 3.66666667 4 5 C4.99 5.33 5.98 5.66 7 6 C7.33 7.98 7.66 9.96 8 12 C3.80186938 8.25572134 1.92223883 5.1596937 0 0 Z "
        transform="translate(275,795)" style="fill: #EAAD48;" />
    <path
        d="M0 0 C0.66 0 1.32 0 2 0 C0.68139111 4.61513112 -1.21355437 8.09897612 -4 12 C-5 9 -5 9 -4.00390625 6.73828125 C-3.52824219 5.93777344 -3.05257812 5.13726563 -2.5625 4.3125 C-2.08941406 3.50425781 -1.61632812 2.69601562 -1.12890625 1.86328125 C-0.75636719 1.24839844 -0.38382813 0.63351562 0 0 Z "
        transform="translate(598,641)" style="fill: #EA8E2E;" />
    <path
        d="M0 0 C2 2 2 2 2.3125 4.875 C1.96732652 8.32673483 1.14126508 9.38980351 -1 12 C-1.02687279 10.18757948 -1.04633715 8.37504767 -1.0625 6.5625 C-1.07410156 5.55316406 -1.08570313 4.54382813 -1.09765625 3.50390625 C-1 1 -1 1 0 0 Z "
        transform="translate(771,522)" style="fill: #458530;" />
    <path
        d="M0 0 C0.66 0.33 1.32 0.66 2 1 C-1.49087093 5.0042343 -3.64951939 6.62671065 -9 7 C-6.3765992 4.08511023 -3.28183606 2.11496102 0 0 Z "
        transform="translate(463,794)" style="fill: #F6EBD4;" />
    <path
        d="M0 0 C0.33 0.99 0.66 1.98 1 3 C-0.07680502 4.13125022 -1.16175635 5.25474919 -2.25 6.375 C-2.85328125 7.00148438 -3.4565625 7.62796875 -4.078125 8.2734375 C-5.9700588 9.97310161 -7.68201309 10.98459866 -10 12 C-8.90777974 8.72333923 -8.17281146 8.08390769 -5.5625 6 C-3.11225368 4.03571068 -1.78619422 2.67929132 0 0 Z "
        transform="translate(512,711)" style="fill: #F79B1D;" />
    <path
        d="M0 0 C0.99 0.33 1.98 0.66 3 1 C3 2.32 3 3.64 3 5 C3.66 5 4.32 5 5 5 C5.33 7.64 5.66 10.28 6 13 C2.57068046 9.2440786 1.43570917 4.76533255 0 0 Z "
        transform="translate(561,462)" style="fill: #5B8929;" />
    <path
        d="M0 0 C0.33 0 0.66 0 1 0 C1 2.64 1 5.28 1 8 C-2.82097239 7.46930939 -5.06171403 6.50298434 -8 4 C-5.66666667 4 -3.33333333 4 -1 4 C-0.67 2.68 -0.34 1.36 0 0 Z "
        transform="translate(541,341)" style="fill: #E6E2C5;" />
    <path
        d="M0 0 C0.99 0.66 1.98 1.32 3 2 C1.73581754 2.69965443 0.46334598 3.38434763 -0.8125 4.0625 C-1.52019531 4.44535156 -2.22789062 4.82820313 -2.95703125 5.22265625 C-5 6 -5 6 -8 5 C-5.31158141 2.74754119 -3.35358125 1.11786042 0 0 Z "
        transform="translate(477,259)" style="fill: #7A5B3D;" />
    <path
        d="M0 0 C0.6875 1.6875 0.6875 1.6875 1 4 C-0.67292823 7.69805188 -2.18712958 9.55373881 -6 11 C-4.54955729 6.89041233 -2.48889248 3.56741255 0 0 Z "
        transform="translate(584,670)" style="fill: #F4E4CA;" />
    <path
        d="M0 0 C3.24299151 2.38957269 5.50902342 4.2047869 7 8 C6.34 8 5.68 8 5 8 C4.67 8.99 4.34 9.98 4 11 C3.32880451 9.5437455 2.66318193 8.08492133 2 6.625 C1.62875 5.81289063 1.2575 5.00078125 0.875 4.1640625 C0 2 0 2 0 0 Z "
        transform="translate(621,558)" style="fill: #D3932A;" />
    <path
        d="M0 0 C1.32 0 2.64 0 4 0 C3.88590407 1.45922693 3.75834456 2.91740598 3.625 4.375 C3.55539062 5.18710937 3.48578125 5.99921875 3.4140625 6.8359375 C3 9 3 9 1 11 C0.67 7.37 0.34 3.74 0 0 Z "
        transform="translate(491,264)" style="fill: #72522F;" />
    <path
        d="M0 0 C0.66 0.33 1.32 0.66 2 1 C-0.31 3.64 -2.62 6.28 -5 9 C-5.33 8.34 -5.66 7.68 -6 7 C-6.66 6.67 -7.32 6.34 -8 6 C-5.36 4.02 -2.72 2.04 0 0 Z "
        transform="translate(479,783)" style="fill: #F7EED7;" />
    <path
        d="M0 0 C1 3 1 3 0.0625 5.1875 C-0.4634375 6.0846875 -0.4634375 6.0846875 -1 7 C-2.32 6.34 -3.64 5.68 -5 5 C-4.34 3.68 -3.68 2.36 -3 1 C-2.01 1.33 -1.02 1.66 0 2 C0 1.34 0 0.68 0 0 Z "
        transform="translate(654,585)" style="fill: #478731;" />
    <path
        d="M0 0 C0.5625 1.9375 0.5625 1.9375 1 4 C0 5 0 5 -3.0625 5.0625 C-4.5165625 5.0315625 -4.5165625 5.0315625 -6 5 C-4.87312259 1.61936778 -3.78825335 0 0 0 Z "
        transform="translate(534,226)" style="fill: #F0F0EC;" />
    <path
        d="M0 0 C0 4.38968456 -2.12805101 5.76905739 -5 9 C-5.99 8.34 -6.98 7.68 -8 7 C-5.36 4.69 -2.72 2.38 0 0 Z "
        transform="translate(547,177)" style="fill: #755A3B;" />
    <path
        d="M0 0 C-0.639375 0.28875 -1.27875 0.5775 -1.9375 0.875 C-4.15206079 1.82823451 -4.15206079 1.82823451 -5 4 C-7.64 4 -10.28 4 -13 4 C-10.81006393 1.81006393 -9.4012702 1.27802011 -6.5 0.3125 C-5.7059375 0.04050781 -4.911875 -0.23148438 -4.09375 -0.51171875 C-2 -1 -2 -1 0 0 Z "
        transform="translate(421,819)" style="fill: #F6E2B8;" />
    <path
        d="M0 0 C1.65 0 3.3 0 5 0 C2.42215154 2.64752004 0.08351902 4.94432065 -3 7 C-3 5.68 -3 4.36 -3 3 C-2.01 3 -1.02 3 0 3 C0 2.01 0 1.02 0 0 Z "
        transform="translate(491,770)" style="fill: #E99C3D;" />
    <path
        d="M0 0 C0 3.10551666 -0.5393715 4.35261084 -2 7 C-2.66 7 -3.32 7 -4 7 C-4 7.99 -4 8.98 -4 10 C-4.99 10 -5.98 10 -7 10 C-5.33248852 6.05860922 -2.77289351 3.2107188 0 0 Z "
        transform="translate(563,701)" style="fill: #EFDBB3;" />
    <path
        d="M0 0 C2.55803184 3.83704776 4.34505724 7.75712791 3.625 12.4375 C3.41875 12.953125 3.2125 13.46875 3 14 C-0.53286034 9.43672206 -0.32374517 5.50366792 0 0 Z "
        transform="translate(514,283)" style="fill: #7D6041;" />
    <path
        d="M0 0 C-5.14285714 4.42857143 -5.14285714 4.42857143 -9 5 C-9 4.01 -9 3.02 -9 2 C-5.86501708 0.14223235 -3.62528568 -0.20140476 0 0 Z "
        transform="translate(470,265)" style="fill: #7E5B3A;" />
    <path
        d="M0 0 C0.53625 0.391875 1.0725 0.78375 1.625 1.1875 C-3.6484375 4.41015625 -3.6484375 4.41015625 -5.375 5.1875 C-7.375 4.1875 -7.375 4.1875 -8.375 2.1875 C-2.95961538 -1.0125 -2.95961538 -1.0125 0 0 Z "
        transform="translate(429.375,261.8125)" style="fill: #785833;" />
    <path
        d="M0 0 C0.66 0.33 1.32 0.66 2 1 C2 1.99 2 2.98 2 4 C-2.455 5.485 -2.455 5.485 -7 7 C-5.37660195 5.29115995 -3.70680947 3.62553283 -2 2 C-1.34 2 -0.68 2 0 2 C0 1.34 0 0.68 0 0 Z "
        transform="translate(498,768)" style="fill: #F4EBCE;" />
    <path
        d="M0 0 C0.89694794 3.58779175 1.08304117 6.34618837 1 10 C-0.32 10.33 -1.64 10.66 -3 11 C-2.01 7.37 -1.02 3.74 0 0 Z "
        transform="translate(764,701)" style="fill: #D8E1D1;" />
    <path
        d="M0 0 C0.66 0 1.32 0 2 0 C2.66 2.97 3.32 5.94 4 9 C3.01 9.33 2.02 9.66 1 10 C0.67 6.7 0.34 3.4 0 0 Z "
        transform="translate(754,456)" style="fill: #548E44;" />
    <path
        d="M0 0 C2.13586678 3.20380017 2.23132175 4.01939967 2.125 7.6875 C2.10695313 8.49574219 2.08890625 9.30398438 2.0703125 10.13671875 C2.04710937 10.75160156 2.02390625 11.36648438 2 12 C0.515625 10.72265625 0.515625 10.72265625 -1 9 C-1.43076923 2.86153846 -1.43076923 2.86153846 0 0 Z "
        transform="translate(413,270)" style="fill: #765737;" />
    <path
        d="M0 0 C2 1 2 1 3 3 C2.34 3 1.68 3 1 3 C1.33 3.99 1.66 4.98 2 6 C1.01 6.99 0.02 7.98 -1 9 C-2.0326802 6.21176345 -2.04509293 5.1322726 -1.0625 2.25 C-0.711875 1.5075 -0.36125 0.765 0 0 Z "
        transform="translate(518,235)" style="fill: #3C751D;" />
    <path
        d="M0 0 C1.32 0 2.64 0 4 0 C3 3 3 3 -0.0625 4.6875 C-1.031875 5.120625 -2.00125 5.55375 -3 6 C-2.67 4.68 -2.34 3.36 -2 2 C-1.34 2 -0.68 2 0 2 C0 1.34 0 0.68 0 0 Z "
        transform="translate(528,225)" style="fill: #745231;" />
    <path
        d="M0 0 C4.875 4.625 4.875 4.625 6 8 C4.125 7.75 4.125 7.75 2 7 C0.27898465 4.41847698 0 3.15081975 0 0 Z "
        transform="translate(586,164)" style="fill: #76583B;" />
    <path
        d="M0 0 C0.33 0.99 0.66 1.98 1 3 C-1.97 5.475 -1.97 5.475 -5 8 C-5.66 7.67 -6.32 7.34 -7 7 C-4.69 4.69 -2.38 2.38 0 0 Z "
        transform="translate(532,737)" style="fill: #EEE1C7;" />
    <path
        d="M0 0 C1.875 0.25 1.875 0.25 4 1 C5.125 3 5.125 3 6 5 C6.66 5.33 7.32 5.66 8 6 C7.67 6.99 7.34 7.98 7 9 C5.83037314 7.69013727 4.66437056 6.3770374 3.5 5.0625 C2.52546875 3.96615234 2.52546875 3.96615234 1.53125 2.84765625 C0 1 0 1 0 0 Z "
        transform="translate(608,541)" style="fill: #658628;" />
    <path
        d="M0 0 C1.65 0.33 3.3 0.66 5 1 C5.33 2.32 5.66 3.64 6 5 C3.36 4.34 0.72 3.68 -2 3 C-1.34 2.67 -0.68 2.34 0 2 C0 1.34 0 0.68 0 0 Z "
        transform="translate(602,276)" style="fill: #E2E9DB;" />
    <path
        d="M0 0 C2.46800047 1.15173355 4.04783565 2.04783565 6 4 C4.25 4.6875 4.25 4.6875 2 5 C-0.25 3.5625 -0.25 3.5625 -2 2 C-1.34 2 -0.68 2 0 2 C0 1.34 0 0.68 0 0 Z "
        transform="translate(580,160)" style="fill: #735637;" />
    <path
        d="M0 0 C-3.1254959 2.64465038 -6.08788267 3.84414715 -10 5 C-9 2 -9 2 -7.25 0.8125 C-4.70039426 -0.10819096 -2.69076919 -0.14948718 0 0 Z "
        transform="translate(432,812)" style="fill: #E39B44;" />
    <path
        d="M0 0 C1.65 0 3.3 0 5 0 C5.33 1.32 5.66 2.64 6 4 C4.68 4 3.36 4 2 4 C1.34 2.68 0.68 1.36 0 0 Z "
        transform="translate(657,598)" style="fill: #4E873A;" />
    <path
        d="M0 0 C-1 2 -1 2 -3.3125 3.1875 C-6.11989571 4.03624754 -7.301935 3.99928333 -10 3 C-6.48812804 0.59185923 -4.27343092 -0.36629408 0 0 Z "
        transform="translate(403,338)" style="fill: #F9BB3B;" />
    <path
        d="M0 0 C2.97 1.98 2.97 1.98 6 4 C5.67 4.99 5.34 5.98 5 7 C3.68 6.67 2.36 6.34 1 6 C0.67 4.02 0.34 2.04 0 0 Z "
        transform="translate(660,311)" style="fill: #529341;" />
    <path
        d="M0 0 C0.33 0 0.66 0 1 0 C0.88637738 1.4800841 0.75877092 2.95910074 0.625 4.4375 C0.52058594 5.67306641 0.52058594 5.67306641 0.4140625 6.93359375 C0.27742188 7.61550781 0.14078125 8.29742187 0 9 C-0.99 9.495 -0.99 9.495 -2 10 C-2.25 3.375 -2.25 3.375 0 0 Z "
        transform="translate(493,302)" style="fill: #F2F1E9;" />
    <path
        d="M0 0 C0.99 0 1.98 0 3 0 C3.33 0.99 3.66 1.98 4 3 C2.68 4.32 1.36 5.64 0 7 C-1.125 2.25 -1.125 2.25 0 0 Z "
        transform="translate(412,265)" style="fill: #EBE7DA;" />
    <path
        d="M0 0 C0.66 0.66 1.32 1.32 2 2 C1.64700993 5.44165321 0.95418308 7.06872538 -1 10 C-1.66 7.69 -2.32 5.38 -3 3 C-2.34 3 -1.68 3 -1 3 C-0.67 2.01 -0.34 1.02 0 0 Z "
        transform="translate(544,256)" style="fill: #4B883B;" />
    <path
        d="M0 0 C0.66 0.33 1.32 0.66 2 1 C1.01 3.97 0.02 6.94 -1 10 C-1.33 10 -1.66 10 -2 10 C-2 7.03 -2 4.06 -2 1 C-1.34 0.67 -0.68 0.34 0 0 Z "
        transform="translate(517,234)" style="fill: #5A6020;" />
    <path
        d="M0 0 C1.98 0 3.96 0 6 0 C6.33 0.66 6.66 1.32 7 2 C5.02 2.99 3.04 3.98 1 5 C0.67 3.35 0.34 1.7 0 0 Z "
        transform="translate(489,217)" style="fill: #F2F0E8;" />
    <path
        d="M0 0 C1.98 0 3.96 0 6 0 C6.33 1.32 6.66 2.64 7 4 C4.97954558 3.39816251 2.97888961 2.72693904 1 2 C0.67 1.34 0.34 0.68 0 0 Z "
        transform="translate(301,823)" style="fill: #E49F44;" />
    <path
        d="M0 0 C0.66 0.33 1.32 0.66 2 1 C-0.52788007 3.79872437 -2.20411134 5.45773019 -6 6 C-2.25 1.125 -2.25 1.125 0 0 Z "
        transform="translate(525,745)" style="fill: #F5ECDA;" />
    <path
        d="M0 0 C0.66 0 1.32 0 2 0 C1.4409112 3.24271506 0.5867822 4.93057424 -2 7 C-2.66 7 -3.32 7 -4 7 C-2.79618552 4.50638429 -1.54571278 2.31856917 0 0 Z "
        transform="translate(552,714)" style="fill: #F0E0C4;" />
    <path
        d="M0 0 C0 3 0 3 -2 6 C-2.99 6 -3.98 6 -5 6 C-4.75 4.125 -4.75 4.125 -4 2 C-1.9375 0.75 -1.9375 0.75 0 0 Z "
        transform="translate(594,652)" style="fill: #EB9C3F;" />
    <path
        d="M0 0 C0.33 0.66 0.66 1.32 1 2 C1.66 2 2.32 2 3 2 C1.75453595 5.73639216 0.36595047 6.18756513 -3 8 C-1.125 2.25 -1.125 2.25 0 0 Z "
        transform="translate(604,633)" style="fill: #F5EDD8;" />
    <path d="M0 0 C4.875 4.625 4.875 4.625 6 8 C4.68 7.67 3.36 7.34 2 7 C1.34 4.69 0.68 2.38 0 0 Z "
        transform="translate(598,529)" style="fill: #DF931F;" />
    <path
        d="M0 0 C0.33 0 0.66 0 1 0 C3.42857143 7.42857143 3.42857143 7.42857143 2 11 C1.34 10.67 0.68 10.34 0 10 C0 6.7 0 3.4 0 0 Z "
        transform="translate(546,419)" style="fill: #D08E20;" />
    <path
        d="M0 0 C0.66 0.33 1.32 0.66 2 1 C-1.625 5.875 -1.625 5.875 -5 7 C-4.67 5.35 -4.34 3.7 -4 2 C-2.68 2 -1.36 2 0 2 C0 1.34 0 0.68 0 0 Z "
        transform="translate(319,383)" style="fill: #FDF8D8;" />
    <path
        d="M0 0 C0 3.58534593 -1.02362045 5.07495826 -3 8 C-3.33 8 -3.66 8 -4 8 C-4.25 5.6875 -4.25 5.6875 -4 3 C-2 1.1875 -2 1.1875 0 0 Z "
        transform="translate(335,371)" style="fill: #F4BE46;" />
    <path
        d="M0 0 C2.31 0.33 4.62 0.66 7 1 C3.86501708 2.85776765 1.62528568 3.20140476 -2 3 C-1.34 2.01 -0.68 1.02 0 0 Z "
        transform="translate(555,266)" style="fill: #5D9546;" />
    <path
        d="M0 0 C0.66 0.33 1.32 0.66 2 1 C1.01 2.65 0.02 4.3 -1 6 C-2.32 5.01 -3.64 4.02 -5 3 C-2.625 1.4375 -2.625 1.4375 0 0 Z "
        transform="translate(441,807)" style="fill: #F8EFCF;" />
    <path
        d="M0 0 C0.53625 0.2475 1.0725 0.495 1.625 0.75 C-0.355 1.41 -2.335 2.07 -4.375 2.75 C-4.375 3.41 -4.375 4.07 -4.375 4.75 C-5.695 4.42 -7.015 4.09 -8.375 3.75 C-2.95961538 -0.31153846 -2.95961538 -0.31153846 0 0 Z "
        transform="translate(468.375,788.25)" style="fill: #F48F21;" />
    <path
        d="M0 0 C0.99 0 1.98 0 3 0 C3 0.66 3 1.32 3 2 C3.66 2 4.32 2 5 2 C5 3.65 5 5.3 5 7 C2.47411298 4.63707344 1.11179163 3.33537489 0 0 Z "
        transform="translate(597,526)" style="fill: #648726;" />
    <path
        d="M0 0 C0.66 0.33 1.32 0.66 2 1 C-0.31 2.65 -2.62 4.3 -5 6 C-5.66 5.34 -6.32 4.68 -7 4 C-1.7265625 0.77734375 -1.7265625 0.77734375 0 0 Z "
        transform="translate(373,346)" style="fill: #F3C863;" />
    <path
        d="M0 0 C-0.66 1.32 -1.32 2.64 -2 4 C-2 3.34 -2 2.68 -2 2 C-2.99 2.33 -3.98 2.66 -5 3 C-5.33 2.01 -5.66 1.02 -6 0 C-3.50907189 -1.24546405 -2.58919267 -0.7767578 0 0 Z "
        transform="translate(611,282)" style="fill: #579141;" />
    <path
        d="M0 0 C1.65 0 3.3 0 5 0 C4.01 0.495 4.01 0.495 3 1 C3 1.99 3 2.98 3 4 C1.35 4 -0.3 4 -2 4 C-1.34 2.68 -0.68 1.36 0 0 Z "
        transform="translate(458,266)" style="fill: #6A4A2A;" />
    <path
        d="M0 0 C0 0.99 0 1.98 0 3 C-2.5 4.6875 -2.5 4.6875 -5 6 C-5.66 5.34 -6.32 4.68 -7 4 C-4.69 2.68 -2.38 1.36 0 0 Z "
        transform="translate(458,243)" style="fill: #795C3D;" />
</svg>